<svg xmlns="http://www.w3.org/2000/svg" xmlns:xlink="http://www.w3.org/1999/xlink" width="1079.944" height="779.709" xmlns:v="https://vecta.io/nano"><style><![CDATA[.B{fill:none}.C{stroke:#3f3d56}.D{stroke-miterlimit:10}.E{fill:#ff6584}.F{fill:#57b894}.G{opacity:.3}.H{fill:#a0616a}.I{fill:#2f2e41}.J{fill:#6c63ff}]]></style><path d="M521.622 18.5c-105.486 0-191 56.816-191 126.902 0 31.294 17.059 59.936 45.322 82.062v92.104l60.546-60.546c27.49 8.928 56.229 13.411 85.132 13.282 105.486 0 191-56.816 191-126.902S627.108 18.5 521.622 18.5z" fill="#f2f2f2"/><g class="G"><use xlink:href="#B" class="F"/><g class="B C D"><path d="M849.973 776.682c-.495-9.271 8.313-16.181 16.631-20.306s17.9-7.978 21.735-16.433c5.513-12.151-3.919-25.329-11.121-36.561a125.3 125.3 0 0 1-12.919-26.631c-1.298-3.751-2.429-7.641-2.348-11.61.116-5.716 2.713-11.052 5.29-16.155q12.88-25.498 26.954-50.369"/><use xlink:href="#B" x="1.235" y="-2.611"/></g><use xlink:href="#C" class="F"/><use xlink:href="#C" x="1.647" y="-3.481" class="B C D"/><path d="M873.572 703.075c9.342 4.966 20.923 2.132 26.917-6.586s4.492-20.546-3.49-27.49l-3.569 7.796-.27-10.445c-.016-.01-.032-.02-.05-.027a20.81 20.81 0 0 0-30.591 19.1 20.81 20.81 0 0 0 11.053 17.652z" class="F"/><path d="M875.074 699.526c9.342 4.966 20.923 2.133 26.917-6.586s4.492-20.546-3.49-27.49l-3.569 7.796-.27-10.445c-.016-.01-.032-.02-.05-.027a20.81 20.81 0 0 0-30.576 19.102 20.81 20.81 0 0 0 11.038 17.649z" class="B C D"/><use xlink:href="#D" class="F"/><use xlink:href="#D" x="1.235" y="-2.61" class="B C D"/><use xlink:href="#E" class="E"/><g class="B C D"><use xlink:href="#F"/><use xlink:href="#E" x="-1.235" y="-2.611"/></g><use xlink:href="#G" class="E"/><use xlink:href="#G" x="-1.647" y="-3.481" class="B C D"/><use xlink:href="#H" class="E"/><use xlink:href="#I" class="B C D"/><use xlink:href="#J" class="E"/><use xlink:href="#J" x="-1.235" y="-2.61" class="B C D"/><use xlink:href="#E" x="520" y="-1" class="E"/><g class="B C D"><use xlink:href="#F" x="520" y="-1"/><use xlink:href="#E" x="518.765" y="-3.611"/></g><use xlink:href="#G" x="520" y="-1" class="E"/><use xlink:href="#G" x="518.353" y="-4.481" class="B C D"/><use xlink:href="#H" x="520" y="-1" class="E"/><use xlink:href="#I" x="520" y="-1" class="B C D"/><use xlink:href="#J" x="520" y="-1" class="E"/><use xlink:href="#J" x="518.765" y="-3.61" class="B C D"/><use xlink:href="#E" x="-220" y="-2" class="E"/><g class="B C D"><use xlink:href="#F" x="-220" y="-2"/><use xlink:href="#E" x="-221.235" y="-4.611"/></g><use xlink:href="#G" x="-220" y="-2" class="E"/><use xlink:href="#G" x="-221.647" y="-5.481" class="B C D"/><use xlink:href="#H" x="-220" y="-2" class="E"/><use xlink:href="#I" x="-220" y="-2" class="B C D"/><use xlink:href="#J" x="-220" y="-2" class="E"/><use xlink:href="#J" x="-221.235" y="-4.61" class="B C D"/><path d="M66.74 558.811c13.401 7.136 29.848 5.029 41.018-5.255s14.625-26.501 8.618-40.445-20.166-22.573-35.313-21.52l-1.693 18.345-6.41-16.834c-9.023 2.777-16.573 9.023-20.993 17.365-1.564 2.92-2.705 6.047-3.391 9.287-3.351 15.615 4.063 31.558 18.163 39.057z" class="F"/><path d="M79.479 776.159c-.849-15.925 14.28-27.795 28.568-34.88s30.747-13.704 37.336-28.227c9.469-20.873-6.731-43.509-19.103-62.803a215.23 215.23 0 0 1-22.191-45.745c-2.23-6.444-4.172-13.125-4.034-19.943.199-9.818 4.66-18.984 9.087-27.75q22.125-43.799 46.3-86.521m-86.58 84.036c13.401 7.136 29.848 5.029 41.018-5.255a35.75 35.75 0 0 0-26.695-61.965l-1.693 18.345-6.41-16.834a35.62 35.62 0 0 0-20.993 17.365 35.04 35.04 0 0 0-3.391 9.287c-3.351 15.615 4.063 31.558 18.163 39.057z" class="B C D"/><use xlink:href="#K" class="F"/><use xlink:href="#K" x="2.829" y="-5.979" class="B C D"/><path d="M120.016 649.72a35.75 35.75 0 0 0 40.24-58.533l-6.131 13.391-.463-17.941c-.027-.018-.056-.034-.085-.047a35.75 35.75 0 0 0-52.506 32.815 35.75 35.75 0 0 0 18.946 30.315z" class="F"/><path d="M122.597 643.624a35.75 35.75 0 0 0 40.24-58.533l-6.131 13.391-.463-17.941a.62.62 0 0 0-.085-.047c-17.433-9.268-39.078-2.648-48.345 14.785s-2.648 39.078 14.785 48.345z" class="B C D"/><path d="M74.844 703.287c.563 16.886 12.876 31.069 29.515 33.999s33.056-6.195 39.353-21.873.752-33.623-13.291-43.016-32.746-7.667-44.832 4.138L98 702.504l-19.765-15.649c-2.43 5.127-3.593 10.762-3.39 16.432z" class="F"/><path d="M76.966 698.803c.563 16.886 12.876 31.069 29.515 33.999s33.056-6.195 39.353-21.873.752-33.623-13.291-43.016-32.746-7.667-44.832 4.138l12.411 25.969-19.765-15.649c-2.43 5.127-3.593 10.762-3.39 16.432z" class="B C D"/><path d="M922.664 778.272c-1.1-20.616 18.486-35.982 36.982-45.153s39.803-17.74 48.332-36.54c12.258-27.02-8.714-56.323-24.729-81.3-11.881-18.535-21.524-38.413-28.726-59.218-2.886-8.342-5.4-16.991-5.221-25.817.258-12.71 6.032-24.576 11.764-35.922q28.641-56.699 59.937-112.004" class="B C D"/><use xlink:href="#L" class="E"/><use xlink:href="#L" y="-3" class="B C D"/><use xlink:href="#L" x="-59" y="343" class="E"/><use xlink:href="#L" x="-59" y="340" class="B C D"/><use xlink:href="#L" x="11" y="271" class="E"/><use xlink:href="#L" x="11" y="268" class="B C D"/><use xlink:href="#M" class="E"/><use xlink:href="#M" x="1.357" y="-2.675" class="B C D"/><use xlink:href="#M" x="45" y="105" class="E"/><use xlink:href="#M" x="46.357" y="102.325" class="B C D"/></g><path d="M8.944 778.034h1052M535.122.5c-105.486 0-191 56.816-191 126.902 0 31.294 17.059 59.936 45.322 82.062v92.104l60.546-60.546a271.68 271.68 0 0 0 85.132 13.282c105.486 0 191-56.816 191-126.902S640.608.5 535.122.5z" class="B C D"/><path d="M452.132 328.864s-3.842-51.741-2.033-61.204 3.508-36.4-6.438-27.545-6.412 28.945-6.412 28.945-9.438 54.682-.709 62.1 15.592-2.296 15.592-2.296z" class="H"/><path d="M459.295 380.031s-29.604-26.403-28.003-48.806c0 0 17.602-13.602 21.603-6.401s33.079 35.293 28.141 44.85-21.74 10.357-21.74 10.357z" class="J"/><path d="M564.107 332.826s17.602-48.806 18.402-58.407 6.401-36.004 13.602-24.803-1.6 29.604-1.6 29.604-5.601 55.207-16.002 60.007-14.402-6.401-14.402-6.401zm-48.005 244.829h47.206l2.4 24.003-11.201 2.4s-26.403-8.001-41.605-5.601 3.2-20.803 3.2-20.803z" class="H"/><path d="M547.305 574.455s22.403-15.202 26.403-2.4 18.402 59.207 13.602 64.008-10.401-4-10.401-4-9.601-20.002-16.802-20.803-11.201-7.201-11.201-7.201 20.802-16.002-1.6-29.604z" class="I"/><path d="M504.1 698.47s8.801 36.004 7.201 41.605 25.603 2.4 25.603 2.4l1.6-10.401s-16.002-25.603-16.002-36.804-18.402 3.2-18.402 3.2z" class="H"/><g class="I"><path d="M536.904 724.873s21.603 16.002 10.401 24.003-52.806 28.803-52.806 28.803-15.202 2.4-4-11.201 14.402-16.002 15.202-23.203a35.12 35.12 0 0 1 4.934-13.508c0 0 11.068 22.309 26.27-4.894z"/><use xlink:href="#N"/></g><use xlink:href="#N" opacity=".1"/><path d="M489.38 298.021c-5.719 1.035-11.385 4.177-14.229 9.544-2.653 5.006-2.822 11.696-7.042 15.291-2.52 2.146-5.94 2.642-8.754 4.328a13.48 13.48 0 0 0-6.201 12.008c.225 4.414 2.553 8.526 2.504 12.947-.064 5.747-4.038 10.492-7.776 14.651l12.395 2.3a12.34 12.34 0 0 0 5.734.152c2.141-.634 3.88-2.397 6.044-2.934 3.104-.771 6.175 1.117 8.944 2.792 7.882 4.768 16.334 8.366 24.756 11.949 2.477 1.054 5.287 2.109 7.731.972 1.974-.918 3.202-3.065 5.059-4.226 3.326-2.08 7.502-.514 11.239.513a37.15 37.15 0 0 0 25.383-2.161c-1.712-2-3.956-3.398-5.801-5.26s-3.338-4.499-2.85-7.151c.497-2.704 2.822-4.51 4.407-6.692a15.72 15.72 0 0 0 2.392-11.924c-.832-4.072-2.812-7.82-5.707-10.801a57.05 57.05 0 0 1-4.669-4.923c-2.916-3.938-3.638-9.151-4.571-14.061s-2.406-10.134-6.192-13.124c-6.033-4.763-15.829-3.139-22.881-3.612-6.724-.451-13.207-.575-19.915-.575zm-39.686 178.022l15.202 37.605s-69.608 76.009-30.404 86.41 52.806-8.001 77.609 6.401c0 0 12.001-18.402 10.401-29.604 0 0-34.404-6.401-52.806-5.601 0 0 49.606-43.205 54.407-44.805s20.803-27.203-4-48.006-18.402-32.004-18.402-32.004z" class="I"/><use xlink:href="#O" class="H"/><use xlink:href="#O" opacity=".1"/><g class="J"><path d="M540.105 388.832s-4.801-24.803-14.402-23.203-28.803 3.2-31.204 4.801-15.202 4.879-15.202 4.879 4.801-5.68 0-6.48-20.002 3.2-21.603 6.401-8.001 9.601-8.001 20.803-4.801 30.404-3.2 38.405-.8 26.403-5.601 36.804-.8 20.803 7.201 10.401 4 0 10.401.8 35.204-28.804 43.205-21.603 16.002 12.001 17.602 8.001-6.401-11.201-6.401-14.402-12.802 10.401.8-17.602.8-36.004 26.403-48.006z"/><path d="M533.704 387.232l6.401 1.6s23.203-16.802 29.604-28.803l11.201-21.603s-10.401-12.802-16.802-8.001-35.204 37.605-35.204 37.605z"/></g><circle cx="504.1" cy="337.626" r="24.803" class="H"/><path d="M482.159 330.441c4.238-3.516 9.651-5.296 15.149-4.982 9.508.585 17.877 7.36 27.4 7.572a9.82 9.82 0 0 1 .819-6.07c.739-1.513 1.904-2.98 1.747-4.656a5.68 5.68 0 0 0-2.054-3.364c-5.505-5.22-13.116-7.91-20.694-8.241-5.081-.222-14.779-.102-18.72 3.746-3.372 3.292-2.98 11.73-3.647 15.997z" class="I"/><circle cx="535.122" cy="151.034" r="52" class="J"/><g fill="#444053"><ellipse cx="522.416" cy="131.441" rx="4.987" ry="6.531"/><ellipse cx="548.184" cy="131.441" rx="4.987" ry="6.531"/></g><path d="M566.292 151.984c0 9.378-15.662 25.174-31.468 25.174s-30.874-16.152-30.874-25.53 14.742-.802 30.547-.802 31.794-8.22 31.794 1.158z" fill="#3f3d56"/><path d="M508.932 153.587s28.41 6.323 52.278.178c0 0 2.921 0 .925 3.377a5.38 5.38 0 0 1-2.189 2.047c-4.6 2.351-21.63 9.298-48.861.437-1.71-.539-3.037-1.899-3.534-3.621-.321-1.159-.182-2.258 1.381-2.418z" fill="#f6f8fb"/><defs ><path id="B" d="M842.557 650.151c7.802 4.154 17.377 2.928 23.879-3.059s8.514-15.428 5.017-23.546-11.74-13.141-20.558-12.528l-.986 10.679-3.731-9.8c-5.253 1.617-9.648 5.253-12.221 10.109a20.41 20.41 0 0 0-1.974 5.407 20.81 20.81 0 0 0 10.574 22.737z"/><path id="C" d="M873.552 591.959a20.79 20.79 0 0 1 16.682-10.968l.269 10.323 4.645-10.145a20.81 20.81 0 0 1 6.079 39.175 20.81 20.81 0 0 1-27.674-28.386z"/><path id="D" d="M847.275 734.259c.328 9.83 7.496 18.087 17.183 19.793s19.244-3.607 22.91-12.734.438-19.574-7.737-25.043-19.063-4.463-26.1 2.409l7.225 15.118-11.507-9.11c-1.415 2.985-2.092 6.265-1.974 9.566z"/><path id="E" d="M292.331 653.151c-7.802 4.154-17.377 2.928-23.879-3.059s-8.514-15.428-5.017-23.546 11.74-13.141 20.558-12.528l.986 10.679 3.731-9.8c5.253 1.617 9.648 5.253 12.221 10.109a20.41 20.41 0 0 1 1.974 5.407 20.81 20.81 0 0 1-10.574 22.737z"/><path id="F" d="M284.915 779.682c.495-9.271-8.313-16.181-16.631-20.306s-17.9-7.978-21.735-16.433c-5.513-12.151 3.919-25.329 11.121-36.561a125.3 125.3 0 0 0 12.919-26.631c1.298-3.751 2.429-7.641 2.348-11.61-.116-5.716-2.713-11.052-5.29-16.155q-12.88-25.498-26.954-50.369"/><path id="G" d="M261.335 594.959a20.79 20.79 0 0 0-16.682-10.968l-.269 10.323-4.645-10.145a20.81 20.81 0 0 0-6.079 39.175 20.81 20.81 0 0 0 27.674-28.386z"/><path id="H" d="M261.316 706.075c-9.342 4.966-20.923 2.132-26.917-6.586s-4.492-20.546 3.49-27.49l3.569 7.796.27-10.445c.016-.01.032-.02.05-.027a20.81 20.81 0 0 1 30.579 19.102 20.81 20.81 0 0 1-11.041 17.65z"/><path id="I" d="M259.813 702.526c-9.342 4.966-20.923 2.133-26.917-6.586s-4.492-20.546 3.49-27.49l3.569 7.796.27-10.445c.016-.01.032-.02.05-.027a20.81 20.81 0 0 1 30.576 19.102 20.81 20.81 0 0 1-11.038 17.649z"/><path id="J" d="M287.613 737.259c-.328 9.83-7.496 18.087-17.183 19.793s-19.244-3.607-22.91-12.734-.438-19.574 7.737-25.043 19.063-4.463 26.1 2.409l-7.225 15.118 11.507-9.11c1.415 2.985 2.092 6.265 1.974 9.566z"/><path id="K" d="M119.982 458.853a35.71 35.71 0 0 1 28.655-18.84l.463 17.733 7.978-17.426a35.75 35.75 0 0 1 10.441 67.292 35.75 35.75 0 0 1-47.537-48.759z"/><path id="L" d="M1045.079 340.281l-20.135 5.753 1.398-9.321-5.398-.179c-26.234 0-47.5 12.088-47.5 27s21.266 27 47.5 27 47.5-12.088 47.5-27c0-9.902-9.383-18.554-23.365-23.253z"/><path id="M" d="M973.309 427.551l-20.56-3.978 5.464-7.681-4.734-2.601c-23.396-11.867-47.831-10.706-54.576 2.593s6.753 33.7 30.149 45.566 47.831 10.706 54.576-2.593c4.479-8.831.025-20.791-10.319-31.307z"/><path id="N" d="M471.296 532.85s-8.801 83.21 4.801 109.613 29.604 62.408 28.803 64.008 23.203-2.4 23.203-9.601-26.403-79.21-26.403-79.21 11.201-93.611 20.002-100.012-50.406 15.202-50.406 15.202z"/><path id="O" d="M485.698 345.627s2.4 24.803-8.001 28.003 40.805 2.4 40.805 2.4-12.001-7.201-6.401-22.403-26.403-8.001-26.403-8.001z"/></defs></svg>