<svg xmlns="http://www.w3.org/2000/svg" xmlns:xlink="http://www.w3.org/1999/xlink" width="882.5" height="686.51" xmlns:v="https://vecta.io/nano"><style><![CDATA[.B{fill:#f5f5f5}.C{fill:#fff}.D{fill:#6c63ff}.E{stroke-miterlimit:10}.F{fill:#e0e0e0}.G{fill:#bdbdbd}.H{fill:#2196f3}]]></style><defs><linearGradient id="A" x1="583.27" y1="588.64" x2="583.27" y2="201.91" gradientUnits="userSpaceOnUse"><stop offset="0" stop-color="gray" stop-opacity=".25"/><stop offset=".54" stop-color="gray" stop-opacity=".12"/><stop offset="1" stop-color="gray" stop-opacity=".1"/></linearGradient><linearGradient id="B" x1="311.645" y1="468.08" x2="285.632" y2="372.798" gradientUnits="userSpaceOnUse"><stop offset="0" stop-opacity=".12"/><stop offset=".55" stop-opacity=".09"/><stop offset="1" stop-opacity=".02"/></linearGradient><linearGradient id="C" x1="304.42" y1="452.4" x2="304.42" y2="430.82" xlink:href="#B"/><linearGradient id="D" x1="297.23" y1="434.68" x2="297.23" y2="395.56" xlink:href="#B"/><linearGradient id="E" x1="312.435" y1="470.975" x2="303.654" y2="438.812" xlink:href="#B"/><linearGradient id="F" x1="297.833" y1="417.337" x2="288.167" y2="381.932" xlink:href="#B"/><linearGradient id="G" x1="430.02" y1="366.65" x2="462.16" y2="366.65" gradientUnits="userSpaceOnUse"><stop offset="0" stop-opacity=".09"/><stop offset=".55" stop-opacity=".07"/><stop offset="1" stop-opacity=".02"/></linearGradient><linearGradient id="H" x1="594.34" y1="321.79" x2="626.48" y2="321.79" xlink:href="#G"/><linearGradient id="I" x1="763.82" y1="275.52" x2="795.96" y2="275.52" xlink:href="#G"/><linearGradient id="J" x1="473.19" y1="524.77" x2="505.33" y2="524.77" xlink:href="#G"/><linearGradient id="K" x1="637.5" y1="479.91" x2="669.64" y2="479.91" xlink:href="#G"/><linearGradient id="L" x1="806.99" y1="433.64" x2="839.13" y2="433.64" xlink:href="#G"/><linearGradient id="M" x1="495.23" y1="686.51" x2="495.23" y2="299.78" xlink:href="#A"/><linearGradient id="N" x1="372.77" y1="598.59" x2="372.77" y2="499.81" xlink:href="#B"/><linearGradient id="O" x1="214.02" y1="475.19" x2="214.02" y2="453.62" xlink:href="#B"/><linearGradient id="P" x1="214.05" y1="456.51" x2="214.05" y2="417.4" xlink:href="#B"/><linearGradient id="Q" x1="372.77" y1="601.58" x2="372.77" y2="568.25" xlink:href="#B"/><linearGradient id="R" x1="372.81" y1="545.99" x2="372.81" y2="509.29" xlink:href="#B"/><path id="S" d="M248.047 197.346l140.546-38.37 18.905 69.246-140.546 38.37z"/></defs><path d="M5.257 203.045L743.153 1.595l99.419 364.163-737.896 201.45z" class="B"/><path transform="matrix(.964695 -.263368 .263368 .964695 -242.26 60.83)" fill="url(#A)" d="M196.01 201.91h774.54v386.73H196.01z"/><path d="M15.286 239.79L753.182 38.34l89.321 327.176-737.896 201.45z" class="C"/><circle cx="186.41" cy="322.7" r="9.64" transform="matrix(.96 -.26 .26 .96 -237.16 -46.26)" fill="#ff5252"/><circle cx="214.31" cy="315.08" r="9.64" transform="matrix(.964695 -.263368 .263368 .964695 -234.17 -39.18)" fill="#ff0"/><circle cx="242.22" cy="307.46" r="9.64" transform="matrix(.964695 -.263368 .263368 .964695 -231.18 -32.1)" fill="#69f0ae"/><path d="M15.164 239.354l194.29-53.042 89.44 327.611-194.29 53.042z" class="D"/><path d="M350.71 407.77c-7.4-27.11-36.54-42.77-65.07-35S240 408.88 247.36 436c5.81 21.28 25 35.5 46.79 36.87l-3.45-12.65c-2.5-9.14 3.34-18.77 13-21.4h0c9.62-2.63 19.54 2.7 22 11.85l3.45 12.65c18.06-12.27 27.37-34.32 21.56-55.55z" transform="translate(-158.75 -106.74)" fill="url(#B)"/><rect x="301.2" y="430.82" width="6.44" height="21.58" rx="2.86" transform="matrix(.964695 -.263368 .263368 .964695 -264.31 -10.98)" fill="url(#C)"/><ellipse cx="297.22" cy="415.12" rx="20.59" ry="19.56" transform="matrix(.964695 -.263368 .263368 .964695 -257.59 -13.81)" fill="url(#D)"/><g transform="translate(-158.75 -106.74)"><path d="M303.66 438.81h0c-9.62 2.63-15.45 12.26-13 21.4l3.45 12.65a56.43 56.43 0 0 0 35-9.55l-3.45-12.65c-2.46-9.14-12.38-14.47-22-11.85z" fill="url(#E)"/><path d="M276.91,419.54a18.18,18.18,0,0,1-4.71-8.91,12.92,12.92,0,0,1,2.05-9.81c2.25-3.13,6-5,9.66-6.35s7.6-2.2,11.14-3.91a24.69,24.69,0,0,0,12.5-13.91,29.89,29.89,0,0,1,2.18,8.33,10.56,10.56,0,0,1-2.65,8.1c2.65-2.15,3.18,1,3,3.09,2,1.31,5.67.6,6.46,2.77a13.8,13.8,0,0,1,1,6.76c-.35,2.29,1.61,5.64-.68,6.43" fill="url(#F)"/></g><path d="M187.36 294.51c-6.814-24.926-31.226-40.788-56.771-36.888s-44.11 26.326-43.175 52.149 21.076 46.846 46.836 48.888l-3.45-12.65c-2.477-9.175 2.92-18.629 12.08-21.16h0c9.175-2.477 18.629 2.92 21.16 12.08l3.45 12.65c17.574-12.33 25.523-34.36 19.87-55.07z" class="D"/><g class="C"><g stroke="#fff"><rect x="299.35" y="423.6" width="6.12" height="21.58" rx="2.86" transform="matrix(.964695 -.263368 .263368 .964695 -262.48 -11.76)" class="E"/><circle cx="295.21" cy="407.9" r="19.56" transform="matrix(.964695 -.263368 .263368 .964695 -255.76 -14.59)"/><path d="M142.89 324.85h0c-9.16 2.531-14.557 11.985-12.08 21.16l3.44 12.65a51.08 51.08 0 0 0 33.24-9.08l-3.45-12.65c-2.531-9.155-11.978-14.551-21.15-12.08zm-25.75-19.59a19 19 0 0 1-4.6-8.94 13.16 13.16 0 0 1 1.83-9.75c2.11-3.09 5.61-4.94 9.13-6.21s7.22-2.09 10.57-3.76a23.39 23.39 0 0 0 11.74-13.71 31.45 31.45 0 0 1 2.19 8.33 10.61 10.61 0 0 1-2.43 8c2.5-2.11 3 1.08 2.93 3.12 1.89 1.33 5.42.67 6.2 2.84a14.47 14.47 0 0 1 1.07 6.75c-.31 2.28 1.61 5.64-.57 6.4" class="E"/></g><path d="M146.49 278.57s13.48-2.45 9.44 19.65"/></g><path opacity=".1" d="M59.374 403.294l194.29-53.042 44.578 163.284-194.29 53.042z"/><path d="M106.17 428.288l95.08-25.958 2.539 9.3-95.08 25.958zm5.924 21.702l117.818-32.165 2.539 9.3-117.818 32.165z" class="C"/><use xlink:href="#S" class="B"/><use xlink:href="#S" x="18.343" y="67.169" class="F"/><use xlink:href="#S" x="333.814" y="-91.127" class="B"/><use xlink:href="#S" x="352.147" y="-23.959" class="F"/><use xlink:href="#S" x="166.391" y="-45.428" class="B"/><g class="F"><use xlink:href="#S" x="184.727" y="21.753"/><path d="M287.305 353.896l139.862-37.879 18.663 68.909-139.862 37.879z"/></g><use xlink:href="#S" x="61.221" y="224.259" class="G"/><use xlink:href="#S" x="376.69" y="65.954" class="B"/><use xlink:href="#S" x="395.036" y="133.132" class="G"/><use xlink:href="#S" x="209.269" y="111.663" class="B"/><use xlink:href="#S" x="227.612" y="178.831" class="G"/><ellipse cx="446.09" cy="366.65" rx="16.07" ry="15" transform="matrix(.964695 -.263368 .263368 .964695 -239.57 23.69)" fill="url(#G)"/><circle cx="445.81" cy="365.62" r="13.93" transform="matrix(.96 -.26 .26 .96 -239.31 23.58)" class="D"/><ellipse cx="610.41" cy="321.79" rx="16.07" ry="15" transform="matrix(.964695 -.263368 .263368 .964695 -221.95 65.38)" fill="url(#H)"/><circle cx="610.13" cy="320.76" r="13.93" transform="matrix(.964695 -.263368 .263368 .964695 -221.69 65.27)" class="D"/><ellipse cx="779.9" cy="275.52" rx="16.07" ry="15" transform="matrix(.964695 -.263368 .263368 .964695 -203.78 108.38)" fill="url(#I)"/><circle cx="779.62" cy="274.49" r="13.93" transform="matrix(.964695 -.263368 .263368 .964695 -203.52 108.27)" class="D"/><ellipse cx="489.26" cy="524.77" rx="16.07" ry="15" transform="matrix(.964695 -.263368 .263368 .964695 -279.69 40.64)" fill="url(#J)"/><circle cx="488.97" cy="523.74" r="13.93" transform="matrix(.964695 -.263368 .263368 .964695 -279.42 40.53)" class="H"/><ellipse cx="653.58" cy="479.91" rx="16.07" ry="15" transform="matrix(.964695 -.263368 .263368 .964695 -262.07 82.33)" fill="url(#K)"/><circle cx="653.29" cy="478.88" r="13.93" transform="matrix(.964695 -.263368 .263368 .964695 -261.81 82.22)" class="H"/><ellipse cx="823.06" cy="433.64" rx="16.07" ry="15" transform="matrix(.964695 -.263368 .263368 .964695 -243.9 125.33)" fill="url(#L)"/><circle cx="822.78" cy="432.61" r="13.93" transform="matrix(.964695 -.263368 .263368 .964695 -243.64 125.22)" class="H"/><path d="M113.28 300.25h764.9v377.49h-764.9z" class="B"/><path fill="url(#M)" d="M107.96 299.78H882.5v386.73H107.96z"/><path d="M113.28 338.35h764.9V677.5h-764.9z" class="C"/><circle cx="131.49" cy="318.61" r="9.64" fill="#ff5252"/><circle cx="160.41" cy="318.61" r="9.64" fill="#ff0"/><circle cx="189.34" cy="318.61" r="9.64" fill="#69f0ae"/><path d="M113.28 337.9h201.4v339.6h-201.4z" class="D"/><path d="M426.33 550.7c0-28.1-24-50.89-53.56-50.89s-53.57 22.78-53.57 50.89c0 22.06 14.77 40.83 35.43 47.89v-13.11c0-9.48 8.16-17.23 18.14-17.23h0c10 0 18.14 7.75 18.14 17.23v13.11c20.65-7.06 35.42-25.84 35.42-47.89z" transform="translate(-158.75 -106.74)" fill="url(#N)"/><rect x="210.79" y="453.62" width="6.44" height="21.58" rx="2.86" fill="url(#O)"/><ellipse cx="214.05" cy="436.96" rx="20.59" ry="19.56" fill="url(#P)"/><g transform="translate(-158.75 -106.74)"><path d="M372.77 568.25h0c-10 0-18.14 7.75-18.14 17.23v13.11a56.43 56.43 0 0 0 36.27 0v-13.11c0-9.48-8.16-17.23-18.13-17.23z" fill="url(#Q)"/><path d="M352,542.61a18.18,18.18,0,0,1-2.2-9.84,12.92,12.92,0,0,1,4.56-8.92c3-2.43,7.07-3.29,11-3.59s7.91-.12,11.78-.84a24.69,24.69,0,0,0,15.72-10.13,29.89,29.89,0,0,1-.09,8.61,10.56,10.56,0,0,1-4.69,7.11c3.13-1.37,2.79,1.85,2.11,3.78,1.55,1.78,5.32,2.07,5.51,4.37a13.8,13.8,0,0,1-.79,6.8c-.95,2.12.07,5.86-2.35,6" fill="url(#R)"/></g><path d="M264.86 436.46c-.003-25.843-19.375-47.581-45.047-50.548s-49.492 13.779-55.39 38.94 8 50.748 32.317 59.498v-13.09c.027-9.504 7.726-17.203 17.23-17.23h0c9.524 0 17.252 7.706 17.28 17.23v13.11c20.182-7.289 33.625-26.452 33.61-47.91z" class="D"/><g class="C"><g stroke="#fff"><rect x="210.92" y="446.12" width="6.12" height="21.58" rx="2.86" class="E"/><circle cx="214.01" cy="429.46" r="19.56"/><path d="M213.98 454.01h0c-9.512.028-17.214 7.738-17.23 17.25v13.11a51.08 51.08 0 0 0 34.46 0v-13.11c-.016-9.512-7.718-17.222-17.23-17.25zm-19.73-25.63a19 19 0 0 1-2.09-9.84 13.16 13.16 0 0 1 4.34-8.92c2.85-2.43 6.71-3.29 10.44-3.59s7.51-.12 11.19-.84a23.39 23.39 0 0 0 14.94-10.13 31.45 31.45 0 0 1-.08 8.61 10.61 10.61 0 0 1-4.46 7.11c3-1.37 2.65 1.85 2 3.78 1.47 1.78 5 2.07 5.23 4.37a14.47 14.47 0 0 1-.75 6.8c-.9 2.12.06 5.86-2.23 6" class="E"/></g><path d="M229.64 410.26s13.65 1.19 3.93 21.45"/></g><path opacity=".1" d="M112.74 507.7h201.4v169.26h-201.4z"/><path d="M151.31 544.12h98.56v9.64h-98.56z" class="C"/><path d="M390.2 395.21h98.56v9.64H390.2z" class="G"/><path d="M390.2 453.06h352.45v9.64H390.2zm0 57.85h352.45v9.64H390.2z" class="F"/><path fill="#64ffda" d="M390.2 568.76h98.56v9.64H390.2z"/><path d="M516.61 568.76h98.56v9.64h-98.56z" class="B"/><path fill="#64ffda" d="M644.1 568.76h98.56v9.64H644.1z"/><path d="M151.31 566.62h122.13v9.64H151.31z" class="C"/></svg>