<svg xmlns="http://www.w3.org/2000/svg" xmlns:xlink="http://www.w3.org/1999/xlink" width="426" height="214" fill="none" xmlns:v="https://vecta.io/nano"><style><![CDATA[.B{stroke:#3f3d56}.C{stroke-miterlimit:10}.D{opacity:.1}.E{fill:#57b894}.F{fill:#000}.G{fill:#3f3d56}.H{fill:#fbbebe}.I{fill:#f2f2f2}.J{fill:#6c63ff}]]></style><g clip-path="url(#A)"><g class="J"><path d="M140.681 32.08c.73 0 1.321-.683 1.321-1.526s-.591-1.526-1.321-1.526-1.321.683-1.321 1.526.592 1.526 1.321 1.526z"/><use xlink:href="#C"/><path d="M148.816 34.737c.729 0 1.321-.683 1.321-1.526s-.592-1.526-1.321-1.526-1.321.683-1.321 1.526.591 1.526 1.321 1.526z"/></g><g fill="#d0cde1"><path d="M90.15 170.342c48.826 0 88.407-1.69 88.407-3.775s-39.581-3.776-88.407-3.776-88.407 1.691-88.407 3.776 39.581 3.775 88.407 3.775zm157.055 42.788c37.994 0 68.795-1.69 68.795-3.775s-30.801-3.776-68.795-3.776-68.796 1.691-68.796 3.776 30.801 3.775 68.796 3.775z"/></g><g class="G"><path d="M213.463 180.05h19.848v9.588h-11.548v9.587h11.549v9.586h-19.849V180.05zm23.818 0h19.847v8.337h-11.547v1.667h11.547v19.175h-19.847v-8.755h11.548v-1.667H237.28l.001-18.757zm23.817 0h19.848v8.337h-11.548v1.667h11.548v19.175h-19.848v-8.755h11.548v-1.667h-11.547l-.001-18.757zm-221.1-43.866h8.188v9.343h7.49v-9.343h8.188v28.295h-8.188v-9.475h-7.49v9.475h-8.188v-28.295zm34.632 9.383h-7.207v-9.383h22.608v9.383h-7.212v18.912h-8.188l-.002-18.912zm18.989-9.383h8.537l5.251 9.942 5.247-9.942h8.541v28.295h-8.155v-14.025l-5.633 10.061h-.141l-5.636-10.061v14.025h-8.011v-28.295zm31.65 0h8.191v18.942h11.514v9.353h-19.705v-28.295z"/></g></g><g clip-path="url(#B)"><g class="B C"><path d="M359.073 30.027H195.541V59.04h163.532V30.027zM97.953 71.239c4.663-6.283 13.492-10.522 23.617-10.522 14.986 0 27.135 9.288 27.135 20.746 0 7.325-4.966 13.764-12.465 17.456"/></g><g class="J"><path d="M347.495 35.642H183.964v29.013h163.531V35.642z"/><use xlink:href="#D"/><path d="M89.271 7.955c1.399 0 2.533-.978 2.533-2.184s-1.134-2.184-2.533-2.184-2.533.978-2.533 2.184 1.134 2.184 2.533 2.184z"/><use xlink:href="#E"/></g><g class="B C"><path d="M377.622.155H73.714v170.334h303.909V.155z"/><path d="M73.714 9.62h303.909M81.311 7.019c1.399 0 2.533-.978 2.533-2.184s-1.134-2.184-2.533-2.184-2.533.978-2.533 2.184 1.134 2.184 2.533 2.184z"/><path d="M89.994 7.019c1.399 0 2.532-.978 2.532-2.184s-1.134-2.184-2.532-2.184-2.533.978-2.533 2.184 1.134 2.184 2.533 2.184zm8.683 0c1.399 0 2.533-.978 2.533-2.184s-1.134-2.184-2.533-2.184-2.533.978-2.533 2.184 1.134 2.184 2.533 2.184z"/></g><path d="M34.656 63.812c1.108-.422 2.087-1.061 2.86-1.865s1.319-1.752 1.594-2.77.273-2.076-.007-3.092-.83-1.962-1.606-2.764-1.758-1.437-2.868-1.856a8.93 8.93 0 0 0-3.527-.557c-1.21.052-2.389.346-3.445.858s-1.959 1.229-2.639 2.093l2.929 2.387-3.763-1.009a5.87 5.87 0 0 0 .155 5.138 6.55 6.55 0 0 0 1.141 1.585c1.088 1.127 2.573 1.917 4.228 2.251a8.98 8.98 0 0 0 4.948-.4z" class="E"/><g class="B C"><path d="M73.793 87.227c-2.856-1.728-2.857-5.356-2.147-8.302s1.792-6.16.182-8.829c-2.315-3.836-8.399-4.067-13.391-4.476-3.704-.305-7.353-.987-10.871-2.032-1.41-.419-2.823-.909-3.978-1.723-1.663-1.173-2.639-2.902-3.55-4.58a367.32 367.32 0 0 1-8.643-16.946m2.775 22.636a7.82 7.82 0 0 0 2.86-1.865c.773-.804 1.319-1.753 1.594-2.77a5.84 5.84 0 0 0-.007-3.092c-.28-1.016-.83-1.963-1.606-2.764s-1.758-1.437-2.868-1.856a8.91 8.91 0 0 0-3.527-.557c-1.21.053-2.389.346-3.445.858s-1.959 1.229-2.639 2.093l2.929 2.387-3.763-1.009a5.87 5.87 0 0 0 .155 5.138 6.55 6.55 0 0 0 1.141 1.585c1.088 1.127 2.573 1.917 4.228 2.251a8.98 8.98 0 0 0 4.948-.4h0z"/></g><path d="M24.637 44.271a5.92 5.92 0 0 1-.643-3.293c.109-1.127.546-2.211 1.269-3.154l3.115 1.996-1.923-3.213c1.213-.975 2.754-1.592 4.4-1.762s3.313.115 4.759.814 2.597 1.777 3.286 3.077a5.9 5.9 0 0 1 .55 4.156c-.332 1.401-1.172 2.674-2.398 3.636s-2.775 1.563-4.424 1.717-3.311-.149-4.747-.863-2.572-1.803-3.244-3.111z" class="E"/><path d="M23.99 43.155a5.92 5.92 0 0 1-.643-3.293c.109-1.127.546-2.212 1.269-3.154l3.115 1.996-1.923-3.213c1.213-.975 2.753-1.592 4.4-1.762s3.313.115 4.759.814 2.597 1.777 3.286 3.077.882 2.756.55 4.156-1.172 2.674-2.398 3.636-2.776 1.563-4.424 1.717-3.311-.149-4.747-.863-2.572-1.803-3.244-3.111h0z" class="B C"/><path d="M57.5 66.489c1.756-.671 3.164-1.875 3.956-3.384a5.89 5.89 0 0 0 .339-4.796c-.574-1.58-1.802-2.923-3.45-3.773s-3.602-1.147-5.488-.834l1.477 2.469-3.151-2.02c-.007.002-.013.004-.02.007-.939.359-1.787.873-2.495 1.515s-1.263 1.397-1.633 2.223c-.747 1.669-.694 3.525.146 5.16s2.4 2.916 4.335 3.56a8.98 8.98 0 0 0 5.984-.126z" class="E"/><path d="M56.799 65.396c1.756-.671 3.164-1.875 3.956-3.384a5.89 5.89 0 0 0 .339-4.796c-.574-1.58-1.802-2.923-3.45-3.773s-3.602-1.147-5.488-.834l1.477 2.469-3.151-2.02c-.007.002-.013.004-.02.007a7.93 7.93 0 0 0-2.496 1.514c-.709.641-1.264 1.397-1.634 2.223a5.92 5.92 0 0 0-.523 2.593c.025.886.252 1.758.668 2.568s1.013 1.541 1.757 2.152 1.62 1.089 2.579 1.408a8.95 8.95 0 0 0 3.007.45c1.027-.022 2.039-.218 2.978-.577h0z" class="B C"/><path d="M60.622 79.431c1.447.913 3.215 1.37 5.006 1.293s3.497-.683 4.832-1.716 2.217-2.43 2.499-3.957-.054-3.092-.951-4.431-2.301-2.372-3.976-2.924-3.519-.592-5.224-.111-3.166 1.452-4.138 2.752-1.397 2.848-1.203 4.385l6.146 1.181-5.363 1.112c.554.958 1.368 1.786 2.371 2.416z" class="E"/><path d="M60.136 78.594c1.447.913 3.215 1.37 5.006 1.293s3.497-.683 4.832-1.716 2.217-2.43 2.499-3.957-.054-3.092-.951-4.431-2.301-2.372-3.976-2.924a9 9 0 0 0-5.224-.111c-1.705.481-3.166 1.452-4.138 2.752s-1.397 2.848-1.203 4.385l6.147 1.181-5.363 1.112c.554.958 1.368 1.786 2.371 2.416h0z" class="B C"/><path d="M399.831 143.003a8.5 8.5 0 0 0 3.338.759c1.165.027 2.322-.18 3.38-.604s1.985-1.055 2.712-1.842 1.231-1.708 1.474-2.691a5.62 5.62 0 0 0-.074-2.976c-.291-.974-.841-1.876-1.606-2.635s-1.723-1.355-2.8-1.74-2.244-.549-3.407-.48l-.357 3.332-1.35-3.057c-1.9.504-3.49 1.639-4.421 3.154a5.83 5.83 0 0 0-.715 1.686c-.343 1.38-.155 2.82.535 4.1s1.846 2.331 3.291 2.994z" class="E"/><g class="B C"><path d="M402.514 182.476c-.179-2.892 3.008-5.048 6.017-6.334s6.476-2.489 7.864-5.127c1.994-3.791-1.418-7.902-4.024-11.406-1.933-2.6-3.502-5.389-4.673-8.308-.47-1.17-.879-2.383-.85-3.622.042-1.783.981-3.448 1.914-5.039a364.01 364.01 0 0 1 9.752-15.714m-18.236 15.262c1.029.473 2.172.733 3.338.76a8.55 8.55 0 0 0 3.379-.605c1.057-.425 1.986-1.054 2.712-1.841s1.232-1.708 1.475-2.692.217-2.002-.074-2.975-.841-1.876-1.606-2.635-1.723-1.355-2.8-1.74a8.62 8.62 0 0 0-3.407-.48l-.357 3.332-1.35-3.058c-1.9.505-3.49 1.639-4.421 3.154-.33.531-.57 1.098-.715 1.687a5.68 5.68 0 0 0 .535 4.099c.69 1.28 1.846 2.331 3.291 2.994h0z"/></g><path d="M411.045 124.849c.592-.961 1.456-1.779 2.51-2.377s2.267-.957 3.526-1.045l.097 3.221 1.68-3.165c1.577.213 3.035.853 4.163 1.827s1.867 2.231 2.112 3.591-.018 2.752-.751 3.975-1.897 2.213-3.324 2.828-3.046.823-4.62.594-3.022-.884-4.136-1.869-1.837-2.251-2.062-3.614.056-2.751.805-3.966z" class="E"/><path d="M411.641 123.763c.592-.961 1.455-1.779 2.51-2.377s2.267-.957 3.525-1.045l.098 3.221 1.68-3.165c1.577.213 3.035.853 4.162 1.827s1.868 2.231 2.113 3.591-.019 2.752-.751 3.975-1.897 2.213-3.325 2.828-3.045.823-4.619.594-3.022-.884-4.136-1.869-1.837-2.251-2.063-3.613.057-2.752.806-3.967z" class="B C"/><path d="M411.052 159.513c1.633.749 3.528.953 5.324.574s3.367-1.314 4.415-2.628 1.497-2.914 1.264-4.496-1.132-3.034-2.527-4.08l-1.291 2.432-.098-3.258c-.006-.004-.012-.007-.018-.009-.873-.401-1.829-.649-2.814-.731a8.63 8.63 0 0 0-2.924.253 7.96 7.96 0 0 0-2.589 1.199 6.78 6.78 0 0 0-1.86 1.962c-.464.753-.752 1.578-.847 2.427s.006 1.706.296 2.521.763 1.574 1.392 2.232a7.43 7.43 0 0 0 2.277 1.602h0z" class="E"/><path d="M411.596 158.406c1.632.748 3.527.953 5.323.574s3.368-1.315 4.415-2.629 1.498-2.913 1.265-4.495-1.133-3.034-2.528-4.08l-1.291 2.432-.098-3.259a8.46 8.46 0 0 0-2.831-.739 8.68 8.68 0 0 0-2.924.253 7.98 7.98 0 0 0-2.589 1.199c-.763.543-1.395 1.209-1.859 1.962s-.752 1.578-.847 2.427a5.66 5.66 0 0 0 .295 2.521c.29.816.763 1.574 1.392 2.232s1.403 1.202 2.277 1.602h0z" class="B C"/><path d="M401.538 169.242c.058 1.488.707 2.913 1.839 4.038s2.677 1.878 4.378 2.137 3.452.004 4.961-.719 2.684-1.872 3.327-3.254a5.65 5.65 0 0 0 .207-4.334c-.51-1.423-1.571-2.651-3.006-3.478s-3.157-1.205-4.876-1.068-3.332.779-4.567 1.819l2.614 4.717-4.163-2.842a5.68 5.68 0 0 0-.714 2.984z" class="E"/><path d="M401.985 168.427c.057 1.488.707 2.914 1.838 4.038s2.678 1.879 4.379 2.137 3.452.004 4.961-.719 2.684-1.872 3.327-3.253.717-2.912.207-4.335-1.571-2.65-3.006-3.478-3.157-1.205-4.876-1.068-3.332.78-4.567 1.82l2.614 4.716-4.163-2.842c-.512.931-.757 1.955-.714 2.984z" class="B C"/><path d="M64.685 36.983c1.108-.422 2.087-1.061 2.86-1.865s1.318-1.752 1.594-2.77a5.84 5.84 0 0 0-.007-3.092c-.28-1.016-.83-1.963-1.606-2.764s-1.758-1.437-2.868-1.856a8.93 8.93 0 0 0-3.527-.557c-1.21.052-2.389.346-3.445.858s-1.959 1.229-2.639 2.093l2.929 2.387-3.764-1.009a5.87 5.87 0 0 0 .155 5.138c.291.572.676 1.106 1.141 1.585 1.088 1.127 2.572 1.917 4.228 2.251a8.98 8.98 0 0 0 4.948-.4z" class="E"/><g class="B C"><path d="M73.616 35.036c-1.663-1.173-2.639-2.902-3.55-4.58a366.93 366.93 0 0 1-8.643-16.946m2.776 22.636c1.108-.422 2.087-1.061 2.86-1.865s1.319-1.752 1.594-2.77a5.84 5.84 0 0 0-.007-3.092c-.28-1.016-.83-1.963-1.606-2.764s-1.758-1.437-2.868-1.856a8.93 8.93 0 0 0-3.527-.557c-1.21.052-2.389.346-3.445.858s-1.959 1.229-2.639 2.093l2.929 2.387-3.764-1.009a5.87 5.87 0 0 0 .155 5.138c.292.572.676 1.106 1.141 1.585 1.088 1.127 2.572 1.917 4.228 2.251a8.98 8.98 0 0 0 4.948-.4h0z"/></g><path d="M54.666 17.442c-.531-1.034-.753-2.166-.643-3.293s.546-2.212 1.269-3.155l3.115 1.996-1.923-3.213c1.213-.975 2.754-1.592 4.4-1.762s3.313.115 4.759.814 2.597 1.777 3.286 3.077.882 2.756.55 4.156-1.172 2.674-2.399 3.636-2.775 1.564-4.424 1.717-3.311-.149-4.747-.863-2.572-1.803-3.244-3.111h0z" class="E"/><g class="B C"><path d="M54.019 16.326a5.92 5.92 0 0 1-.643-3.293c.109-1.127.546-2.212 1.269-3.155l3.115 1.996-1.923-3.213c1.213-.975 2.754-1.592 4.4-1.762s3.313.115 4.759.814 2.597 1.777 3.286 3.077.882 2.756.55 4.156-1.172 2.674-2.398 3.636-2.775 1.563-4.424 1.717-3.311-.149-4.747-.863-2.572-1.803-3.244-3.111h0zm115.11-6.706v161.112"/></g><g class="I"><path d="M256.504 88.833H203.32v6.239h53.184v-6.239zm83.575 0h-53.184v6.239h53.184v-6.239z"/></g><path d="M259.398 85.713h-53.184v6.239h53.184v-6.239z" class="B C"/><path d="M256.504 137.188H203.32v6.239h53.184v-6.239z" class="I"/><path d="M259.398 134.068h-53.184v6.239h53.184v-6.239z" class="B C"/><path d="M340.26 112.386H203.501v6.239H340.26v-6.239z" class="I"/><g class="B C"><path d="M343.154 109.89H206.395v6.24h136.759v-6.24zm-.181-24.177h-53.184v6.239h53.184v-6.239z"/></g><g class="G"><path d="M359.856 67.443a5.91 5.91 0 0 0 .435.981c1.954 3.961 2.039 8.423.236 12.437 1.298-.07 2.595.111 3.892.197s2.639.072 3.845-.365 2.255-1.375 2.431-2.532c.237-1.562-1.082-2.924-2.239-4.11-1.179-1.208-2.319-2.54-2.668-4.116-.384-1.732.162-3.763-1.106-5.112a1.2 1.2 0 0 0-.422-.31c-.682-.269-2.456-.261-3.142.073-1.056.513-1.521 1.867-1.262 2.857zm35.928 112.976a6.96 6.96 0 0 1-.426 1.531s-1.315 2.609-6.721 1.905c-3.532-.46-3.508-1.887-2.923-2.992.267-.46.59-.894.964-1.294.526-.613.474-2.949.659-5.08s1.3-2.241 1.3-2.241l.066 2.399c2.105-2.381 3.578.408 3.578.408s2.993.054 2.627-1.269l-.972-3.642s1.449.58 1.711.988-.052 5.875-.289 6.396 0 1.928.343 2.336c.096.173.125.367.083.555z"/></g><path d="M394.785 173.645a2.31 2.31 0 0 1-.571 1.502c-.371.436-.892.758-1.49.92a4.56 4.56 0 0 1-1.795.121c-.601-.079-1.173-.277-1.672-.576-.302-.182-.541-.431-.692-.721a1.54 1.54 0 0 1-.165-.925l.084-.602.719-5.226s4.481-1.967 4.182-1.224c-.112.277.136 1.526.491 2.982l.829 3.159c.053.193.081.391.08.59z" class="H"/><path d="M388.125 173.479s3.88-3.929 7.055.358l-.532 2.746h-6.523v-3.104z" class="D F"/><path d="M388.125 173.752s3.88-3.93 7.055.357l-.532 2.746h-6.523v-3.103z" class="G"/><g class="I"><path d="M393.168 176.174c.218 0 .395-.152.395-.34s-.177-.34-.395-.34-.394.152-.394.34.176.34.394.34zm-5.043-.545c.218 0 .395-.152.395-.34s-.177-.34-.395-.34-.394.152-.394.34.176.34.394.34zm3.682 2.85c.218 0 .395-.152.395-.339s-.177-.34-.395-.34-.394.152-.394.34.176.339.394.339zm-3.443-.399c.218 0 .394-.153.394-.34s-.176-.34-.394-.34-.395.152-.395.34.177.34.395.34z"/><use xlink:href="#F"/><path d="M388.125 176.854c.218 0 .395-.152.395-.34s-.177-.34-.395-.34-.394.153-.394.34.176.34.394.34zm3.288 2.891c.218 0 .394-.153.394-.34s-.176-.34-.394-.34-.395.152-.395.34.177.34.395.34zm-3.049-.44c.218 0 .394-.152.394-.34s-.176-.34-.394-.34-.395.153-.395.34.177.34.395.34z"/></g><path d="M362.139 184.536l-5.366 1.564s-2.84-2.449-2.051-3.197c.336-.32.629-1.382.853-2.495l.194-1.049.294-2.035s6.233-2.586 5.208 0c-.255.732-.355 1.498-.295 2.261a12.98 12.98 0 0 0 .333 2.264 19.11 19.11 0 0 0 .83 2.687z" class="H"/><path d="M362.139 184.536l-5.366 1.565s-2.84-2.45-2.051-3.198c.336-.32.629-1.381.853-2.495.305.47.517.979.627 1.508 4.635 2.195 4.714.885 4.714.885a2.21 2.21 0 0 1 .393-.951 19.14 19.14 0 0 0 .83 2.686z" class="D F"/><path d="M363.322 188.108s-.928.594-3.648.68a16.55 16.55 0 0 0-2.123.206c-2.868.481-5.809.549-8.704.203a21.56 21.56 0 0 1-2.213-.375c-2.801-.664-.671-2.193-.671-2.193l.366-.252c.593-.384 1.824-1.092 3.087-1.263 1.755-.238 3.372-2.926 3.372-2.926l1.105-1.718c1.715-1.275 2.309 1.718 2.309 1.718 4.635 2.195 4.714.885 4.714.885.257-1.174.73-1.175.73-1.175l1.574 3.352c.027.049.062.095.102.136.276.238 0 2.722 0 2.722z" class="G"/><g class="I"><path d="M356.181 183.65c.218 0 .395-.152.395-.339s-.177-.34-.395-.34-.394.152-.394.34.176.339.394.339zm-2.259.953c.218 0 .394-.152.394-.34s-.176-.34-.394-.34-.395.152-.395.34.177.34.395.34zm1.214-.488c.218 0 .395-.152.395-.34s-.177-.34-.395-.34-.394.153-.394.34.177.34.394.34zm-2.486 1.049c.218 0 .395-.152.395-.34s-.177-.34-.395-.34-.394.153-.394.34.176.34.394.34z"/></g><g class="F"><path d="M361.271 177.324c-.255.732-.355 1.498-.295 2.261-1.4-.405-3.693-.335-5.207-.226l.294-2.035s6.234-2.586 5.208 0zm32.605-7.428c-1.939 1.64-3.794 1.742-5.089 1.27l.416-3.028s4.481-1.967 4.182-1.224c-.112.277.136 1.526.491 2.982z" class="D"/></g><path d="M359.851 114.048s-3.078 1.497-3.63 4.422-1.499 6.668-2.21 7.348-2.919 2.858-2.051 4.015 1.026 5.103 1.026 5.103-.316 3.538.552 4.694 1.578 8.505-.316 10.682c0 0-.631 5.035-.394 5.511s-1.026 1.701-.631 2.722 2.288 19.799 2.051 20.547c0 0 5.997-.748 7.575.477 0 0 .316-2.041 0-3.47s.237-7.076.947-8.505.868-6.872.631-7.416c0 0 1.263-4.831.789-5.783s2.052-9.73 2.052-9.73 1.262-2.109.947-2.381c0 0 2.051-1.157 1.815-2.041s1.893-1.906 1.893-1.906 1.894 4.015 2.525 4.627.656 4.559 1.433 5.375 1.802 5.103 2.828 6.26 5.129 4.218 5.76 7.688c0 0 3.709 4.967 3.551 6.532s4.182 4.422 8.364-.885c-.7-.448-1.266-1.033-1.65-1.708s-.576-1.419-.559-2.17c0-2.654-3.314-11.158-3.314-11.158s-1.894-2.382-1.184-3.538.079-4.559.079-4.559l1.499-2.109.474-4.15c.236-2.11-1.421-4.423-.632-5.444s-.315-6.119-.315-6.119-.982-8.79-2.446-9.325-27.459-3.606-27.459-3.606z" class="G"/><g class="H"><path d="M367.04 101.733l-3.588.32-6.848.224c-.719-.408 0-5.579 0-5.579l.011-9.593c-.192-3.202 2.266-5.553 3.199-6.326l.352-.273.789.544 4.498 6.6 1.587 14.084z"/><use xlink:href="#G"/></g><g class="F"><use xlink:href="#G" class="D"/><use xlink:href="#H" class="D"/></g><path d="M371.07 77.878c5.047 0 9.138-3.738 9.138-8.348s-4.091-8.348-9.138-8.348-9.139 3.738-9.139 8.348 4.092 8.348 9.139 8.348z" class="H"/><g class="F"><path d="M384.627 80.029l-4.419 2.313-7.259 4.763s-7.496-3.402-5.603-5.375a2.87 2.87 0 0 0 .693-1.335c8.27 6.096 10.782-.214 11.2-1.527 2.334 1.576 5.388 1.161 5.388 1.161zm-17.587 21.704l-3.588.32-.288-4.13c.079-1.701.079-1.905-.552-2.858s-.552-1.701-.473-2.926c.075-1.173-.284-1.41-1.564-3.284l-.172-.255c-.628-.933-.808-2.622-.815-4.217l.024-1.173.202-2.433.352-.273.789.544 4.498 6.6 1.587 14.084z" class="D"/></g><path d="M390.368 81.034c-.006-.003.953.623.947.621-2.856-1.063-4.477 4.29-4.911 5.975l-.12.495.114 1.17c.213 2.406.579 7.793-.272 9.104a1.89 1.89 0 0 0-.204.437c-.268.796-.236 1.992-.097 3.154a27.43 27.43 0 0 0 .696 3.553s1.893 4.15 1.104 6.872a8.73 8.73 0 0 0-.23 3.086c.081.948.249 1.89.5 2.816l.125.425-3.489.874c-2.213.458-4.474.722-6.748.788-10.67.293-17.775-4.116-19.452-5.318-.133-.095-.232-.17-.295-.222-1.105-.884 1.025-1.565.789-2.177s1.079-1.973 1.079-1.973-.29-2.245.893-2.722 2.052-2.109 2.719-3.47-.115-4.898-.036-6.599.079-1.905-.552-2.858-.553-1.701-.474-2.926c.076-1.173-.284-1.41-1.564-3.283l-.172-.255c-.628-.933.351-2.541.345-4.136.001-.005.363.005.362 0-.002-.38-.74-.891-.724-1.248.002-.015-.362-.297-.362-.312.054-.803-.005-1.609-.173-2.4 6.313-2.79 7.812.117 7.812.117 9.232 6.851 11.327-1.71 11.327-1.71 5.025-1.481 11.634 2.508 12.012 2.739.011.007-.949-.617-.949-.617z" fill="#55536e"/><path d="M356.497 101.039s-.79 3.634 1.494 5.661c.379.334.87.556 1.403.636a2.94 2.94 0 0 0 1.569-.196c.758-.321 1.607-.799 1.925-1.411.628-1.207-1.341-7.105-6.391-4.69z" class="H"/><g class="F"><path d="M386.126 98.399a1.89 1.89 0 0 0-.203.437l.361-7.955.113-1.585c.214 2.406.58 7.793-.271 9.104zm1.499 14.016a8.73 8.73 0 0 0-.23 3.086l-1.233 1.917-.352.542c-.475.523-.903 1.076-1.279 1.656a2.91 2.91 0 0 0-.535 1.346c0 1.046-1.223 8.02-7.023 6.285-3.745-1.12-1.354-4.552.81-6.843a27.33 27.33 0 0 1 2.307-2.172l1.311-1.504a9.09 9.09 0 0 0 1.135-1.558c.276-.68 2.097-3.674 2.097-3.674s1.809-3.3 1.414-4.83c-.221-.858-.244-2.976-.222-4.676a27.43 27.43 0 0 0 .696 3.553s1.893 4.15 1.104 6.872z" class="D"/></g><path d="M391.334 81.662s2.84 1.701 2.762 6.123-1.026 12.077-1.026 12.077l-.592 4.762s-.75 1.94-.631 2.518-6.194 10.274-6.194 10.274-1.815 1.956-1.815 3.002-1.223 8.02-7.023 6.285 3.117-9.015 3.117-9.015 2.17-2.381 2.446-3.062 2.098-3.674 2.098-3.674 1.808-3.3 1.413-4.831-.157-7.088-.157-7.088l.394-8.696.158-2.211s1.46-7.348 5.05-6.464z" class="H"/><path d="M361.202 97.895l4.306-1.349c.355-.111.739-.135 1.109-.069s.711.219.986.443l5.714 4.653s.316.747-.105.714-6.576-5.34-6.576-5.34l-6.102 1.769a.79.79 0 0 1 .184-.501c.119-.147.288-.259.484-.32z" class="J"/><path d="M367.294 104.137l5.918-1.849-6.576-5.34-6.102 1.769 6.76 5.421z" fill="#4b4b5b"/><g class="I"><use xlink:href="#I"/><path d="M354.827 125.251c.29 0 .526-.203.526-.454s-.236-.453-.526-.453-.526.203-.526.453.235.454.526.454zm28.575 2.119c.29 0 .526-.203.526-.454s-.236-.453-.526-.453-.526.203-.526.453.235.454.526.454zm2.975 8.234c.29 0 .526-.203.526-.454s-.236-.454-.526-.454-.526.203-.526.454.235.454.526.454zm-1.159-2.318c.291 0 .526-.203.526-.453s-.235-.454-.526-.454-.526.203-.526.454.236.453.526.453zm-1.006-2.958c.291 0 .526-.203.526-.454s-.235-.453-.526-.453-.526.203-.526.453.236.454.526.454zm-27.715-8.146c.29 0 .526-.203.526-.454s-.236-.453-.526-.453-.526.203-.526.453.235.454.526.454zm-3.757 6.095c.291 0 .526-.203.526-.454s-.235-.453-.526-.453-.526.203-.526.453.236.454.526.454z"/></g><path d="M391.316 81.651l-.001.004c-2.856-1.063-4.477 4.29-4.911 5.975l-4.487-5.537s-1.84 2.539-7.785 2.926-7.39-3.901-7.39-3.901c-.816-.054-4.51 5.68-5.852 7.739l-.172-.255c-.628-.933-.808-2.622-.814-4.217l.022-1.128c.002-.015.002-.03.002-.045l.238-2.706c6.313-2.79 7.812.117 7.812.117 9.232 6.851 11.327-1.71 11.327-1.71 5.025-1.481 11.634 2.508 12.011 2.739z" class="J"/><g class="F"><path d="M356.3 131.398c.079.17 6.707 6.769 9.153 7.11s-9.153-7.11-9.153-7.11zm4.746-10.123s.067 4.653-1.59 5.704 1.59-5.704 1.59-5.704zm3.065 1.652s-.157 5.477 2.21 6.77c0 0-4.34-3.64-2.21-6.77zm-2.919 28.134s-4.419 2.823-5.642 3.027 5.642-3.027 5.642-3.027zm-1.103-86.399c-.952.692-.609 2.128.363 2.798s2.303.773 3.547.801c2.396.053 4.83-.067 7.153.442 1.024.183 1.972.602 2.743 1.212.715.694 1.206 1.537 1.426 2.446.407 1.337.572 2.72.488 4.1-.057.928-.225 1.861-.071 2.781.192.863.531 1.697 1.007 2.474a99.05 99.05 0 0 0 6.095 9.75c.177.31.452.57.794.749.57.237 1.24-.003 1.809-.242a10.25 10.25 0 0 1-.558-2.954c.295.067.607.057.896-.03s.54-.246.723-.458a3.63 3.63 0 0 0 .737-1.43l1.062-3.154c.328-.975.815-2.095 1.945-2.382a7.95 7.95 0 0 0 1.193-.24c.257-.131.463-.323.594-.554s.181-.489.143-.744c-.085-.509-.332-.989-.712-1.385-1.597-1.853-4.261-2.952-5.508-4.996-1.071-1.755-.885-3.866-.531-5.826s.844-3.974.301-5.9c-.55-1.758-1.795-3.295-3.519-4.346-1.72-1.039-3.685-1.736-5.755-2.04a6.64 6.64 0 0 0-2.909.017c-.717.209-1.332.622-2.032.87-1.591.565-3.425.227-5.094.587-1.535.38-2.868 1.21-3.768 2.347-.888 1.132-1.555 2.382-1.973 3.7-.307.865.186 1.211-.711 1.682" class="D"/></g><path d="M360.246 64.39c-.951.692-.609 2.128.364 2.798s2.303.773 3.547.801c2.395.053 4.83-.067 7.152.442 1.025.183 1.973.602 2.744 1.212.714.694 1.206 1.537 1.426 2.446a11.65 11.65 0 0 1 .488 4.1c-.057.928-.225 1.861-.071 2.781a8.13 8.13 0 0 0 1.006 2.474c1.828 3.342 3.862 6.597 6.096 9.75a1.95 1.95 0 0 0 .794.749c.57.237 1.24-.003 1.809-.242a10.22 10.22 0 0 1-.558-2.955c.295.067.607.057.896-.03s.54-.246.723-.458a3.63 3.63 0 0 0 .737-1.43l1.062-3.154c.328-.976.815-2.095 1.945-2.382.405-.05.804-.13 1.193-.24a1.41 1.41 0 0 0 .593-.554 1.16 1.16 0 0 0 .144-.744c-.085-.509-.332-.989-.712-1.385-1.598-1.853-4.261-2.952-5.508-4.996-1.071-1.755-.885-3.866-.532-5.826s.845-3.974.302-5.9c-.55-1.758-1.795-3.295-3.519-4.346-1.72-1.039-3.685-1.736-5.755-2.04a6.64 6.64 0 0 0-2.909.017c-.717.209-1.332.622-2.032.87-1.591.565-3.425.227-5.094.587-1.535.38-2.868 1.21-3.768 2.347-.889 1.132-1.555 2.382-1.973 3.7-.307.865.186 1.211-.711 1.681" class="G"/><path d="M359.259 101.461s7.22-4.151 9.271-1.599-6.352 5.681-6.352 5.681l-2.919-4.082z" class="H"/><path d="M361.618 81.738c-.026.4-.115.891-.374.963.674-.014 1.338.414 2.007.286.498-.095.966-.511 1.266-1.126.03-.092.089-.175.17-.24.07-.035.146 0 .216.036a21.05 21.05 0 0 1 3.632 2.364c.37.297.781.619 1.186.464.019-1.127-.246-2.243-.775-3.274-.427-.826-1.152-1.511-2.068-1.951-.761-.32-1.588-.506-2.432-.546-.365-.006-.723-.083-1.049-.225-.358-.182-1.504-1.362-1.761-.502-.124.415.036 1.299.04 1.757l-.058 1.995z" class="G"/><g class="D F"><path d="M384.468 91.261a1.95 1.95 0 0 1-.795-.749c-2.233-3.153-4.268-6.408-6.095-9.75-.475-.777-.814-1.611-1.006-2.474-.155-.919.014-1.853.07-2.781.084-1.38-.081-2.763-.488-4.1-.219-.909-.711-1.752-1.425-2.446-.771-.61-1.719-1.029-2.744-1.212-2.323-.508-4.757-.388-7.152-.442-1.245-.028-2.575-.13-3.547-.8-.377-.263-.656-.616-.8-1.015a1.84 1.84 0 0 1-.011-1.227 1.54 1.54 0 0 1-.202.139c-.928.697-.585 2.117.381 2.783.973.67 2.303.773 3.547.8 2.396.053 4.83-.066 7.153.442 1.024.183 1.972.602 2.743 1.212.715.694 1.206 1.537 1.426 2.446.407 1.337.572 2.72.488 4.1-.057.928-.225 1.861-.071 2.781.192.863.531 1.697 1.007 2.474a99.24 99.24 0 0 0 6.095 9.75c.177.31.452.57.794.749.57.237 1.24-.003 1.809-.242-.047-.137-.091-.275-.132-.413-.34.105-.713.095-1.045-.026z" class="D"/><path d="M360.17 64.463l.103-.059.018-.014-.121.073zm.735-.739l-.104.059.121-.074-.017.015c.748-.441.312-.794.607-1.622.412-1.294 1.062-2.523 1.925-3.64-.208.197-.402.404-.584.62-.888 1.132-1.555 2.382-1.973 3.7a5.03 5.03 0 0 0-.154 1.103 1.39 1.39 0 0 1 .179-.161zm31.37 16.647a8 8 0 0 1-1.193.24c-.577.171-1.052.532-1.32 1.005a2.01 2.01 0 0 1 .688-.325 7.99 7.99 0 0 0 1.194-.24c.156-.072.294-.171.407-.289s.196-.255.247-.402l-.023.011zm-6.557 7.694l.053.706a1.83 1.83 0 0 0 .935-.514c.122-.13.227-.271.314-.421-.179.127-.391.215-.618.255a1.61 1.61 0 0 1-.684-.027z" class="D"/></g><g class="F"><path d="M357.512 100.65s1.904-.663 3.022-.516l-3.022.516zm5.489 7.478s.967 1.293 5.852 1.837-5.852-1.837-5.852-1.837zm-1.757 4.831s4.394 3.334 11.443 2.109-11.443-2.109-11.443-2.109z" class="D"/></g><path d="M341.526 190.846l72.359-9.671" class="B C"/><g class="J"><path d="M88.597 85.829c0 8.152 6.211 15.197 15.219 18.536L90.935 77.448c-1.533 2.597-2.334 5.468-2.338 8.382zm45.232-1.039c0-2.545-1.199-4.308-2.227-5.68-1.369-1.697-2.651-3.133-2.651-4.83 0-1.893 1.882-3.656 4.533-3.656.12 0 .234.011.351.016-5.183-3.547-11.619-5.455-18.235-5.406-9.434 0-17.733 3.692-22.561 9.283l1.738.024c2.824 0 7.197-.261 7.197-.261 1.455-.065 1.627 1.565.173 1.697 0 0-1.463.131-3.091.196l9.834 22.308 5.909-13.517-4.207-8.791c-1.454-.065-2.832-.196-2.832-.196-1.455-.065-1.284-1.762.171-1.697 0 0 4.459.261 7.112.261 2.824 0 7.197-.261 7.197-.261 1.456-.065 1.628 1.565.173 1.697 0 0-1.466.131-3.091.196l9.759 22.139 2.692-6.865c1.168-2.849 2.057-4.895 2.057-6.658h0zm-17.755 2.841l-8.102 17.955c5.46 1.222 11.206 1.108 16.595-.328a1.61 1.61 0 0 1-.192-.284l-8.301-17.343zm23.22-11.682a12.15 12.15 0 0 1 .181 2.118c0 2.09-.511 4.439-2.053 7.377l-8.248 18.188c8.028-3.57 13.427-10.203 13.427-17.802-.006-3.496-1.153-6.92-3.308-9.881h.001z"/></g></g><defs><clipPath id="A"><path fill="#fff" d="M0 24h316v189.13H0z"/></clipPath><clipPath id="B"><path fill="#fff" d="M23 0h403v191H23z"/></clipPath><path id="C" d="M144.749 33.409c.729 0 1.321-.683 1.321-1.526s-.592-1.526-1.321-1.526-1.321.683-1.321 1.526.591 1.526 1.321 1.526z"/><path id="D" d="M80.588 7.955c1.399 0 2.533-.978 2.533-2.184s-1.134-2.184-2.533-2.184-2.533.978-2.533 2.184 1.134 2.184 2.533 2.184z"/><path id="E" d="M97.954 7.955c1.399 0 2.532-.978 2.532-2.184s-1.134-2.184-2.532-2.184-2.533.978-2.533 2.184 1.134 2.184 2.533 2.184z"/><path id="F" d="M392.57 177.399c.218 0 .395-.152.395-.34s-.177-.34-.395-.34-.394.153-.394.34.176.34.394.34z"/><path id="G" d="M384.627 80.029l-4.419 2.313-7.259 4.763s-7.496-3.402-5.603-5.375a2.87 2.87 0 0 0 .693-1.335c.57-2.272-.693-5.537-.693-5.537s9.876-11.5 9.311-2.586c-.227 3.582 1.015 5.537 2.582 6.596 2.334 1.576 5.388 1.161 5.388 1.161z"/><path id="H" d="M371.07 78.15c5.047 0 9.138-3.738 9.138-8.348s-4.091-8.348-9.138-8.348-9.139 3.738-9.139 8.348 4.092 8.348 9.139 8.348z"/><path id="I" d="M358.404 119.423c.29 0 .526-.203.526-.454s-.236-.453-.526-.453-.526.203-.526.453.235.454.526.454z"/></defs></svg>