<svg width="426" height="214" viewBox="0 0 426 214" fill="none" xmlns="http://www.w3.org/2000/svg">
<g clip-path="url(#clip0)">
<path d="M140.681 32.0801C141.411 32.0801 142.002 31.397 142.002 30.5544C142.002 29.7118 141.411 29.0287 140.681 29.0287C139.952 29.0287 139.36 29.7118 139.36 30.5544C139.36 31.397 139.952 32.0801 140.681 32.0801Z" fill="#6C63FF"/>
<path d="M144.749 33.4086C145.478 33.4086 146.07 32.7255 146.07 31.8829C146.07 31.0403 145.478 30.3572 144.749 30.3572C144.019 30.3572 143.428 31.0403 143.428 31.8829C143.428 32.7255 144.019 33.4086 144.749 33.4086Z" fill="#6C63FF"/>
<path d="M148.816 34.7371C149.545 34.7371 150.137 34.054 150.137 33.2114C150.137 32.3688 149.545 31.6857 148.816 31.6857C148.086 31.6857 147.495 32.3688 147.495 33.2114C147.495 34.054 148.086 34.7371 148.816 34.7371Z" fill="#6C63FF"/>
<path d="M90.1499 170.342C138.976 170.342 178.557 168.652 178.557 166.567C178.557 164.482 138.976 162.791 90.1499 162.791C41.3243 162.791 1.74329 164.482 1.74329 166.567C1.74329 168.652 41.3243 170.342 90.1499 170.342Z" fill="#D0CDE1"/>
<path d="M247.205 213.13C285.199 213.13 316 211.44 316 209.355C316 207.27 285.199 205.579 247.205 205.579C209.21 205.579 178.409 207.27 178.409 209.355C178.409 211.44 209.21 213.13 247.205 213.13Z" fill="#D0CDE1"/>
<path d="M213.463 180.05H233.311V189.638H221.763V199.225H233.312V208.811H213.463V180.05ZM237.281 180.05H257.128V188.387H245.581V190.054H257.128V209.229H237.281V200.474H248.829V198.807H237.28V180.05H237.281ZM261.098 180.05H280.946V188.387H269.398V190.054H280.946V209.229H261.098V200.474H272.646V198.807H261.099V180.05H261.098Z" fill="#3F3D56"/>
<path d="M39.9977 136.184H48.1854V145.527H55.6754V136.184H63.8635V164.479H55.6759V155.004H48.1859V164.479H39.9982V136.184H39.9977ZM74.6301 145.567H67.4231V136.184H90.0307V145.567H82.8192V164.479H74.6316V145.567H74.6301ZM93.6186 136.184H102.156L107.407 146.126L112.654 136.184H121.195V164.479H113.04V150.454L107.407 160.515H107.266L101.63 150.454V164.479H93.6186V136.184ZM125.269 136.184H133.46V155.126H144.974V164.479H125.269V136.184H125.269Z" fill="#3F3D56"/>
</g>
<g clip-path="url(#clip1)">
<path d="M359.073 30.0269H195.541V59.0398H359.073V30.0269Z" stroke="#3F3D56" stroke-miterlimit="10"/>
<path d="M97.9525 71.2389C102.616 64.9556 111.445 60.7166 121.569 60.7166C136.555 60.7166 148.704 70.0048 148.704 81.4624C148.704 88.7879 143.738 95.2266 136.239 98.9179" stroke="#3F3D56" stroke-miterlimit="10"/>
<path d="M347.495 35.6422H183.964V64.6552H347.495V35.6422Z" fill="#6C63FF"/>
<path d="M80.5875 7.95512C81.9862 7.95512 83.1201 6.9774 83.1201 5.77132C83.1201 4.56524 81.9862 3.58752 80.5875 3.58752C79.1888 3.58752 78.0549 4.56524 78.0549 5.77132C78.0549 6.9774 79.1888 7.95512 80.5875 7.95512Z" fill="#6C63FF"/>
<path d="M89.2706 7.95512C90.6693 7.95512 91.8032 6.9774 91.8032 5.77132C91.8032 4.56524 90.6693 3.58752 89.2706 3.58752C87.8719 3.58752 86.738 4.56524 86.738 5.77132C86.738 6.9774 87.8719 7.95512 89.2706 7.95512Z" fill="#6C63FF"/>
<path d="M97.9537 7.95512C99.3524 7.95512 100.486 6.9774 100.486 5.77132C100.486 4.56524 99.3524 3.58752 97.9537 3.58752C96.555 3.58752 95.4211 4.56524 95.4211 5.77132C95.4211 6.9774 96.555 7.95512 97.9537 7.95512Z" fill="#6C63FF"/>
<path d="M377.622 0.155029H73.7135V170.489H377.622V0.155029Z" stroke="#3F3D56" stroke-miterlimit="10"/>
<path d="M73.7135 9.61951H377.622" stroke="#3F3D56" stroke-miterlimit="10"/>
<path d="M81.311 7.01921C82.7098 7.01921 83.8436 6.04149 83.8436 4.83541C83.8436 3.62933 82.7098 2.65161 81.311 2.65161C79.9123 2.65161 78.7784 3.62933 78.7784 4.83541C78.7784 6.04149 79.9123 7.01921 81.311 7.01921Z" stroke="#3F3D56" stroke-miterlimit="10"/>
<path d="M89.9942 7.01921C91.3929 7.01921 92.5267 6.04149 92.5267 4.83541C92.5267 3.62933 91.3929 2.65161 89.9942 2.65161C88.5954 2.65161 87.4615 3.62933 87.4615 4.83541C87.4615 6.04149 88.5954 7.01921 89.9942 7.01921Z" stroke="#3F3D56" stroke-miterlimit="10"/>
<path d="M98.6773 7.01921C100.076 7.01921 101.21 6.04149 101.21 4.83541C101.21 3.62933 100.076 2.65161 98.6773 2.65161C97.2786 2.65161 96.1447 3.62933 96.1447 4.83541C96.1447 6.04149 97.2786 7.01921 98.6773 7.01921Z" stroke="#3F3D56" stroke-miterlimit="10"/>
<path d="M34.6558 63.8124C35.7636 63.39 36.7426 62.7514 37.5154 61.9471C38.2882 61.1428 38.8339 60.1946 39.1093 59.1775C39.3847 58.1603 39.3823 57.1019 39.1024 56.0856C38.8225 55.0694 38.2726 54.1231 37.4962 53.3213C36.7198 52.5196 35.738 51.8842 34.6283 51.4655C33.5186 51.0467 32.3112 50.8559 31.1013 50.9081C29.8915 50.9603 28.7122 51.2541 27.6566 51.7663C26.6009 52.2786 25.6976 52.9952 25.0179 53.8598L27.9473 56.247L24.1838 55.2384C23.4437 56.9011 23.4994 58.7492 24.3387 60.3765C24.6303 60.9485 25.0144 61.4821 25.4795 61.9612C26.5676 63.0881 28.0521 63.8785 29.7079 64.2125C31.3638 64.5466 33.1008 64.4061 34.6558 63.8124Z" fill="#57B894"/>
<path d="M73.7926 87.2272C70.9363 85.4992 70.9358 81.8713 71.6453 78.9255C72.3548 75.9797 73.4378 72.7659 71.8273 70.0969C69.5126 66.2611 63.4283 66.0304 58.4363 65.6205C54.7322 65.3159 51.0829 64.6338 47.565 63.5885C46.1546 63.1692 44.7421 62.6795 43.5872 61.8653C41.9239 60.6926 40.9482 58.9632 40.0371 57.2855C37.002 51.6963 34.121 46.0475 31.3941 40.339" stroke="#3F3D56" stroke-miterlimit="10"/>
<path d="M34.1703 62.9754C35.2781 62.5529 36.2571 61.9144 37.0299 61.1101C37.8028 60.3057 38.3484 59.3576 38.6238 58.3404C38.8992 57.3233 38.8968 56.2649 38.6169 55.2486C38.337 54.2323 37.7871 53.286 37.0107 52.4843C36.2343 51.6825 35.2526 51.0472 34.1428 50.6284C33.0331 50.2096 31.8257 50.0188 30.6159 50.0711C29.406 50.1233 28.2268 50.4171 27.1711 50.9293C26.1154 51.4415 25.2121 52.1582 24.5324 53.0228L27.4618 55.41L23.6984 54.4014C22.9582 56.0641 23.0139 57.9122 23.8532 59.5395C24.1448 60.1115 24.5289 60.6451 24.9941 61.1242C26.0822 62.2511 27.5666 63.0415 29.2225 63.3755C30.8783 63.7096 32.6153 63.5691 34.1703 62.9754V62.9754Z" stroke="#3F3D56" stroke-miterlimit="10"/>
<path d="M24.637 44.2711C24.1055 43.2375 23.8842 42.1052 23.9936 40.9785C24.103 39.8518 24.5395 38.767 25.2628 37.824L28.3781 39.8199L26.4554 36.6067C27.6683 35.632 29.209 35.0148 30.8552 34.8444C32.5013 34.6739 34.1677 34.959 35.6137 35.6584C37.0597 36.3577 38.2105 37.4353 38.9 38.7354C39.5896 40.0355 39.782 41.491 39.4497 42.8916C39.1174 44.2922 38.2775 45.5655 37.0512 46.5277C35.825 47.4898 34.2758 48.0911 32.6274 48.2446C30.9791 48.3981 29.3167 48.0959 27.8805 47.3817C26.4443 46.6675 25.3084 45.5782 24.637 44.2711Z" fill="#57B894"/>
<path d="M23.9897 43.155C23.4582 42.1214 23.2369 40.9891 23.3463 39.8624C23.4557 38.7357 23.8922 37.6509 24.6156 36.7079L27.7308 38.7039L25.8082 35.4906C27.021 34.5159 28.5617 33.8987 30.2079 33.7283C31.854 33.5578 33.5204 33.8429 34.9664 34.5423C36.4124 35.2417 37.5633 36.3192 38.2528 37.6193C38.9423 38.9194 39.1348 40.3749 38.8025 41.7755C38.4702 43.1761 37.6302 44.4494 36.404 45.4116C35.1777 46.3737 33.6285 46.975 31.9802 47.1285C30.3318 47.282 28.6695 46.9798 27.2332 46.2656C25.797 45.5514 24.6612 44.4621 23.9897 43.155L23.9897 43.155Z" stroke="#3F3D56" stroke-miterlimit="10"/>
<path d="M57.4996 66.4886C59.2556 65.8178 60.6639 64.6132 61.456 63.1046C62.2482 61.5959 62.3689 59.8887 61.7951 58.3082C61.2213 56.7278 59.9931 55.3847 58.3446 54.5349C56.6962 53.6851 54.7427 53.3881 52.8566 53.7004L54.3341 56.1696L51.1829 54.1495C51.1762 54.1514 51.1696 54.1538 51.1633 54.1567C50.2242 54.5154 49.3763 55.0301 48.668 55.6715C47.9596 56.3128 47.4047 57.0681 47.0348 57.8943C46.2879 59.563 46.3404 61.4191 47.1806 63.0545C48.0209 64.6898 49.5801 65.9703 51.5153 66.6143C53.4505 67.2584 55.6031 67.2131 57.4996 66.4886Z" fill="#57B894"/>
<path d="M56.7986 65.3957C58.5546 64.7249 59.9629 63.5203 60.7551 62.0117C61.5472 60.503 61.6679 58.7958 61.0941 57.2153C60.5203 55.6349 59.2921 54.2918 57.6436 53.442C55.9952 52.5922 54.0417 52.2952 52.1556 52.6075L53.6331 55.0767L50.4819 53.0566C50.4752 53.0586 50.4686 53.061 50.4623 53.0638C49.5229 53.4223 48.6746 53.937 47.9659 54.5782C47.2572 55.2195 46.702 55.9749 46.3319 56.8013C45.9618 57.6277 45.7842 58.5088 45.8091 59.3944C45.834 60.2799 46.061 61.1526 46.4772 61.9625C46.8933 62.7724 47.4904 63.5037 48.2344 64.1146C48.9784 64.7255 49.8546 65.204 50.8131 65.5228C51.7716 65.8416 52.7935 65.9945 53.8205 65.9727C54.8475 65.9509 55.8595 65.7548 56.7986 65.3957V65.3957Z" stroke="#3F3D56" stroke-miterlimit="10"/>
<path d="M60.6219 79.4308C62.0692 80.3441 63.8367 80.8006 65.6279 80.7236C67.4192 80.6466 69.1253 80.0409 70.4601 79.008C71.7949 77.9751 72.6772 76.5778 72.9591 75.0506C73.241 73.5233 72.9053 71.9589 72.0083 70.6197C71.1113 69.2806 69.7076 68.2481 68.0325 67.6954C66.3575 67.1427 64.513 67.1035 62.8084 67.5843C61.1037 68.0651 59.6427 69.0366 58.6702 70.336C57.6977 71.6354 57.273 73.1837 57.4672 74.7211L63.6136 75.9024L58.2508 77.0144C58.8052 77.972 59.6184 78.8007 60.6219 79.4308Z" fill="#57B894"/>
<path d="M60.1364 78.5937C61.5837 79.507 63.3512 79.9634 65.1425 79.8864C66.9337 79.8094 68.6398 79.2037 69.9746 78.1708C71.3095 77.1379 72.1918 75.7407 72.4737 74.2134C72.7555 72.6861 72.4198 71.1217 71.5228 69.7826C70.6258 68.4434 69.2221 67.4109 67.5471 66.8582C65.872 66.3056 64.0275 66.2663 62.3229 66.7471C60.6183 67.2279 59.1572 68.1995 58.1847 69.4989C57.2122 70.7983 56.7875 72.3465 56.9817 73.8839L63.1282 75.0652L57.7653 76.1772C58.3198 77.1348 59.1329 77.9636 60.1364 78.5937V78.5937Z" stroke="#3F3D56" stroke-miterlimit="10"/>
<path d="M399.831 143.003C400.86 143.475 402.003 143.735 403.169 143.762C404.334 143.789 405.491 143.582 406.549 143.158C407.606 142.733 408.534 142.103 409.261 141.316C409.987 140.53 410.492 139.608 410.735 138.625C410.978 137.641 410.953 136.623 410.661 135.649C410.37 134.675 409.82 133.773 409.055 133.014C408.291 132.255 407.332 131.659 406.255 131.274C405.178 130.889 404.011 130.725 402.848 130.794L402.491 134.126L401.141 131.069C399.241 131.573 397.651 132.708 396.72 134.223C396.39 134.753 396.15 135.321 396.005 135.909C395.662 137.289 395.85 138.729 396.54 140.009C397.23 141.289 398.386 142.34 399.831 143.003Z" fill="#57B894"/>
<path d="M402.514 182.476C402.335 179.584 405.522 177.428 408.531 176.142C411.541 174.855 415.007 173.653 416.395 171.015C418.389 167.224 414.977 163.113 412.371 159.609C410.438 157.009 408.869 154.22 407.698 151.301C407.228 150.131 406.819 148.918 406.848 147.679C406.89 145.896 407.829 144.231 408.762 142.64C411.869 137.337 415.119 132.099 418.514 126.926" stroke="#3F3D56" stroke-miterlimit="10"/>
<path d="M400.278 142.188C401.307 142.661 402.45 142.921 403.616 142.948C404.781 142.975 405.938 142.768 406.995 142.343C408.053 141.919 408.981 141.289 409.707 140.502C410.434 139.715 410.939 138.794 411.182 137.81C411.425 136.827 411.399 135.808 411.108 134.835C410.817 133.861 410.267 132.959 409.502 132.2C408.738 131.441 407.779 130.845 406.702 130.46C405.624 130.075 404.458 129.91 403.295 129.98L402.938 133.312L401.588 130.254C399.688 130.759 398.098 131.893 397.167 133.408C396.837 133.939 396.597 134.506 396.452 135.095C396.109 136.475 396.296 137.914 396.987 139.194C397.677 140.474 398.833 141.525 400.278 142.188V142.188Z" stroke="#3F3D56" stroke-miterlimit="10"/>
<path d="M411.045 124.849C411.637 123.888 412.501 123.07 413.555 122.472C414.61 121.874 415.822 121.515 417.081 121.427L417.178 124.648L418.858 121.483C420.435 121.696 421.893 122.336 423.021 123.31C424.148 124.284 424.888 125.541 425.133 126.901C425.377 128.261 425.115 129.653 424.382 130.876C423.65 132.099 422.485 133.089 421.058 133.704C419.63 134.319 418.012 134.527 416.438 134.298C414.865 134.069 413.416 133.414 412.302 132.429C411.188 131.443 410.465 130.178 410.24 128.815C410.014 127.453 410.296 126.064 411.045 124.849Z" fill="#57B894"/>
<path d="M411.641 123.763C412.233 122.802 413.096 121.984 414.151 121.386C415.206 120.789 416.418 120.429 417.676 120.341L417.774 123.562L419.454 120.397C421.031 120.61 422.489 121.25 423.616 122.224C424.744 123.198 425.484 124.455 425.729 125.815C425.973 127.175 425.71 128.567 424.978 129.79C424.245 131.013 423.081 132.003 421.653 132.618C420.226 133.233 418.608 133.441 417.034 133.212C415.46 132.983 414.012 132.328 412.898 131.343C411.783 130.357 411.061 129.092 410.835 127.73C410.61 126.367 410.892 124.978 411.641 123.763Z" stroke="#3F3D56" stroke-miterlimit="10"/>
<path d="M411.052 159.513C412.685 160.262 414.58 160.466 416.376 160.087C418.172 159.708 419.743 158.773 420.791 157.459C421.838 156.145 422.288 154.545 422.055 152.963C421.822 151.382 420.923 149.929 419.528 148.883L418.237 151.315L418.139 148.057C418.133 148.053 418.127 148.05 418.121 148.048C417.248 147.647 416.292 147.399 415.307 147.317C414.322 147.234 413.329 147.32 412.383 147.57C411.437 147.819 410.557 148.226 409.794 148.769C409.03 149.311 408.398 149.978 407.934 150.731C407.47 151.484 407.182 152.309 407.087 153.158C406.993 154.007 407.093 154.864 407.383 155.679C407.672 156.495 408.146 157.253 408.775 157.911C409.405 158.569 410.179 159.113 411.052 159.513V159.513Z" fill="#57B894"/>
<path d="M411.596 158.406C413.228 159.154 415.123 159.359 416.919 158.98C418.715 158.601 420.287 157.665 421.334 156.351C422.382 155.038 422.832 153.438 422.599 151.856C422.366 150.274 421.466 148.822 420.071 147.776L418.78 150.208L418.682 146.949C418.677 146.946 418.671 146.943 418.664 146.941C417.791 146.54 416.835 146.292 415.851 146.21C414.866 146.128 413.873 146.214 412.927 146.463C411.981 146.712 411.101 147.12 410.338 147.662C409.575 148.205 408.943 148.871 408.479 149.624C408.015 150.377 407.727 151.202 407.632 152.051C407.538 152.9 407.638 153.757 407.927 154.572C408.217 155.388 408.69 156.146 409.319 156.804C409.949 157.462 410.722 158.006 411.596 158.406V158.406Z" stroke="#3F3D56" stroke-miterlimit="10"/>
<path d="M401.538 169.242C401.596 170.73 402.245 172.155 403.377 173.28C404.508 174.404 406.054 175.158 407.755 175.417C409.455 175.675 411.207 175.421 412.716 174.698C414.225 173.974 415.4 172.826 416.043 171.444C416.687 170.063 416.76 168.532 416.25 167.11C415.74 165.687 414.679 164.459 413.244 163.632C411.809 162.804 410.087 162.427 408.368 162.564C406.649 162.701 405.036 163.343 403.801 164.383L406.415 169.1L402.252 166.258C401.74 167.189 401.495 168.212 401.538 169.242Z" fill="#57B894"/>
<path d="M401.985 168.427C402.042 169.915 402.692 171.341 403.823 172.465C404.955 173.589 406.501 174.344 408.202 174.602C409.902 174.86 411.654 174.606 413.163 173.883C414.672 173.16 415.847 172.011 416.49 170.63C417.134 169.248 417.207 167.718 416.697 166.295C416.187 164.873 415.126 163.645 413.691 162.817C412.256 161.99 410.534 161.612 408.815 161.749C407.096 161.886 405.483 162.529 404.248 163.569L406.862 168.285L402.699 165.443C402.187 166.374 401.942 167.398 401.985 168.427Z" stroke="#3F3D56" stroke-miterlimit="10"/>
<path d="M64.6848 36.9832C65.7927 36.5607 66.7716 35.9222 67.5445 35.1179C68.3173 34.3135 68.8629 33.3654 69.1383 32.3482C69.4137 31.3311 69.4114 30.2727 69.1314 29.2564C68.8515 28.2402 68.3017 27.2938 67.5253 26.4921C66.7489 25.6903 65.7671 25.055 64.6573 24.6362C63.5476 24.2175 62.3402 24.0267 61.1304 24.0789C59.9205 24.1311 58.7413 24.4249 57.6856 24.9371C56.6299 25.4493 55.7266 26.166 55.0469 27.0306L57.9764 29.4178L54.2129 28.4092C53.4727 30.0719 53.5285 31.92 54.3678 33.5473C54.6593 34.1193 55.0434 34.6529 55.5086 35.132C56.5967 36.2589 58.0811 37.0492 59.737 37.3833C61.3929 37.7174 63.1299 37.5769 64.6848 36.9832Z" fill="#57B894"/>
<path d="M73.6162 35.036C71.9529 33.8634 70.9773 32.134 70.0662 30.4562C67.0311 24.8671 64.1501 19.2183 61.4232 13.5098" stroke="#3F3D56" stroke-miterlimit="10"/>
<path d="M64.1994 36.1461C65.3072 35.7237 66.2862 35.0851 67.059 34.2808C67.8318 33.4765 68.3775 32.5284 68.6529 31.5112C68.9283 30.494 68.9259 29.4356 68.646 28.4194C68.3661 27.4031 67.8162 26.4568 67.0398 25.6551C66.2634 24.8533 65.2816 24.218 64.1719 23.7992C63.0622 23.3804 61.8548 23.1896 60.6449 23.2418C59.4351 23.294 58.2559 23.5878 57.2002 24.1001C56.1445 24.6123 55.2412 25.329 54.5615 26.1936L57.4909 28.5807L53.7274 27.5722C52.9873 29.2349 53.043 31.0829 53.8823 32.7102C54.1739 33.2823 54.558 33.8158 55.0232 34.2949C56.1113 35.4218 57.5957 36.2122 59.2516 36.5463C60.9074 36.8803 62.6444 36.7398 64.1994 36.1461V36.1461Z" stroke="#3F3D56" stroke-miterlimit="10"/>
<path d="M54.666 17.4418C54.1346 16.4082 53.9133 15.2759 54.0227 14.1493C54.1321 13.0226 54.5686 11.9377 55.2919 10.9947L58.4071 12.9907L56.4845 9.77747C57.6974 8.80275 59.2381 8.18561 60.8842 8.01516C62.5304 7.8447 64.1967 8.12974 65.6428 8.82913C67.0888 9.52852 68.2396 10.6061 68.9291 11.9062C69.6186 13.2063 69.8111 14.6618 69.4788 16.0624C69.1465 17.463 68.3066 18.7363 67.0803 19.6984C65.854 20.6606 64.3049 21.2619 62.6565 21.4154C61.0081 21.5689 59.3458 21.2667 57.9096 20.5525C56.4734 19.8383 55.3375 18.749 54.666 17.4418V17.4418Z" fill="#57B894"/>
<path d="M54.0187 16.3259C53.4872 15.2923 53.266 14.16 53.3754 13.0333C53.4848 11.9066 53.9212 10.8218 54.6446 9.87879L57.7598 11.8747L55.8372 8.66151C57.0501 7.68679 58.5908 7.06965 60.2369 6.89919C61.8831 6.72873 63.5495 7.01377 64.9955 7.71316C66.4415 8.41255 67.5923 9.4901 68.2818 10.7902C68.9713 12.0904 69.1638 13.5458 68.8315 14.9464C68.4992 16.347 67.6593 17.6203 66.433 18.5825C65.2068 19.5446 63.6576 20.1459 62.0092 20.2994C60.3609 20.4529 58.6985 20.1507 57.2623 19.4365C55.8261 18.7223 54.6902 17.633 54.0187 16.3259L54.0187 16.3259Z" stroke="#3F3D56" stroke-miterlimit="10"/>
<path d="M169.129 9.61951V170.732" stroke="#3F3D56" stroke-miterlimit="10"/>
<path d="M256.504 88.8326H203.32V95.072H256.504V88.8326Z" fill="#F2F2F2"/>
<path d="M340.079 88.8326H286.895V95.072H340.079V88.8326Z" fill="#F2F2F2"/>
<path d="M259.398 85.7129H206.214V91.9522H259.398V85.7129Z" stroke="#3F3D56" stroke-miterlimit="10"/>
<path d="M256.504 137.188H203.32V143.427H256.504V137.188Z" fill="#F2F2F2"/>
<path d="M259.398 134.068H206.214V140.307H259.398V134.068Z" stroke="#3F3D56" stroke-miterlimit="10"/>
<path d="M340.26 112.386H203.501V118.625H340.26V112.386Z" fill="#F2F2F2"/>
<path d="M343.154 109.89H206.395V116.13H343.154V109.89Z" stroke="#3F3D56" stroke-miterlimit="10"/>
<path d="M342.973 85.7129H289.789V91.9522H342.973V85.7129Z" stroke="#3F3D56" stroke-miterlimit="10"/>
<path d="M359.856 67.4432C359.97 67.7798 360.115 68.1078 360.291 68.4238C362.245 72.3846 362.33 76.8468 360.527 80.8608C361.825 80.7907 363.122 80.9717 364.419 81.0582C365.716 81.1447 367.058 81.1305 368.264 80.6928C369.469 80.2551 370.519 79.3175 370.695 78.1606C370.932 76.5987 369.613 75.2364 368.456 74.0508C367.277 72.8428 366.137 71.5105 365.788 69.9349C365.404 68.203 365.95 66.1724 364.682 64.8232C364.57 64.6934 364.426 64.5873 364.26 64.5129C363.578 64.2436 361.804 64.2523 361.118 64.5858C360.062 65.0991 359.597 66.4531 359.856 67.4432Z" fill="#3F3D56"/>
<path d="M395.784 180.419C395.702 180.941 395.559 181.453 395.358 181.95C395.358 181.95 394.043 184.559 388.637 183.855C385.105 183.395 385.129 181.968 385.714 180.863C385.981 180.403 386.304 179.969 386.678 179.569C387.204 178.956 387.152 176.62 387.337 174.489C387.52 172.357 388.637 172.248 388.637 172.248L388.703 174.647C390.808 172.266 392.281 175.055 392.281 175.055C392.281 175.055 395.274 175.109 394.908 173.786C394.518 172.376 393.936 170.144 393.936 170.144C393.936 170.144 395.385 170.724 395.647 171.132C395.91 171.54 395.595 177.007 395.358 177.528C395.121 178.049 395.358 179.456 395.701 179.864C395.797 180.037 395.826 180.231 395.784 180.419Z" fill="#3F3D56"/>
<path d="M394.785 173.645C394.785 174.186 394.585 174.712 394.214 175.147C393.843 175.583 393.322 175.905 392.724 176.067C392.144 176.226 391.53 176.267 390.929 176.188C390.328 176.109 389.756 175.911 389.257 175.612C388.955 175.43 388.716 175.181 388.565 174.891C388.414 174.602 388.357 174.282 388.4 173.966L388.484 173.364L388.787 171.166L389.203 168.138C389.203 168.138 393.684 166.171 393.385 166.914C393.273 167.191 393.521 168.44 393.876 169.896C394.129 170.937 394.435 172.083 394.705 173.055C394.758 173.248 394.786 173.446 394.785 173.645Z" fill="#FBBEBE"/>
<path opacity="0.1" d="M388.125 173.479C388.125 173.479 392.005 169.55 395.18 173.837L394.648 176.583H388.125V173.479Z" fill="black"/>
<path d="M388.125 173.752C388.125 173.752 392.005 169.822 395.18 174.109L394.648 176.855H388.125V173.752Z" fill="#3F3D56"/>
<path d="M393.168 176.174C393.386 176.174 393.563 176.022 393.563 175.834C393.563 175.646 393.386 175.494 393.168 175.494C392.95 175.494 392.774 175.646 392.774 175.834C392.774 176.022 392.95 176.174 393.168 176.174Z" fill="#F2F2F2"/>
<path d="M388.125 175.629C388.343 175.629 388.52 175.477 388.52 175.289C388.52 175.101 388.343 174.949 388.125 174.949C387.907 174.949 387.731 175.101 387.731 175.289C387.731 175.477 387.907 175.629 388.125 175.629Z" fill="#F2F2F2"/>
<path d="M391.807 178.479C392.025 178.479 392.202 178.327 392.202 178.14C392.202 177.952 392.025 177.8 391.807 177.8C391.589 177.8 391.413 177.952 391.413 178.14C391.413 178.327 391.589 178.479 391.807 178.479Z" fill="#F2F2F2"/>
<path d="M388.364 178.08C388.582 178.08 388.758 177.927 388.758 177.74C388.758 177.552 388.582 177.4 388.364 177.4C388.146 177.4 387.969 177.552 387.969 177.74C387.969 177.927 388.146 178.08 388.364 178.08Z" fill="#F2F2F2"/>
<path d="M392.57 177.399C392.788 177.399 392.965 177.247 392.965 177.059C392.965 176.872 392.788 176.719 392.57 176.719C392.352 176.719 392.176 176.872 392.176 177.059C392.176 177.247 392.352 177.399 392.57 177.399Z" fill="#F2F2F2"/>
<path d="M388.125 176.854C388.343 176.854 388.52 176.702 388.52 176.514C388.52 176.327 388.343 176.174 388.125 176.174C387.907 176.174 387.731 176.327 387.731 176.514C387.731 176.702 387.907 176.854 388.125 176.854Z" fill="#F2F2F2"/>
<path d="M391.413 179.745C391.631 179.745 391.807 179.592 391.807 179.405C391.807 179.217 391.631 179.065 391.413 179.065C391.195 179.065 391.018 179.217 391.018 179.405C391.018 179.592 391.195 179.745 391.413 179.745Z" fill="#F2F2F2"/>
<path d="M388.364 179.305C388.582 179.305 388.758 179.153 388.758 178.965C388.758 178.778 388.582 178.625 388.364 178.625C388.146 178.625 387.969 178.778 387.969 178.965C387.969 179.153 388.146 179.305 388.364 179.305Z" fill="#F2F2F2"/>
<path d="M362.139 184.536L356.773 186.1C356.773 186.1 353.933 183.651 354.722 182.903C355.058 182.583 355.351 181.521 355.575 180.408C355.648 180.057 355.713 179.699 355.769 179.359C355.956 178.253 356.063 177.324 356.063 177.324C356.063 177.324 362.296 174.738 361.271 177.324C361.016 178.056 360.916 178.822 360.976 179.585C361.02 180.346 361.131 181.103 361.309 181.849C361.518 182.759 361.795 183.657 362.139 184.536Z" fill="#FBBEBE"/>
<path opacity="0.1" d="M362.139 184.536L356.773 186.101C356.773 186.101 353.933 183.651 354.722 182.903C355.058 182.583 355.351 181.522 355.575 180.408C355.88 180.878 356.092 181.387 356.202 181.916C360.837 184.111 360.916 182.801 360.916 182.801C360.968 182.463 361.102 182.139 361.309 181.85C361.518 182.759 361.795 183.657 362.139 184.536Z" fill="black"/>
<path d="M363.322 188.108C363.322 188.108 362.394 188.702 359.674 188.788C358.961 188.811 358.252 188.88 357.551 188.994C354.683 189.475 351.742 189.543 348.847 189.197C348.101 189.11 347.362 188.985 346.634 188.822C343.833 188.158 345.963 186.629 345.963 186.629C345.963 186.629 346.097 186.528 346.329 186.377C346.922 185.993 348.153 185.285 349.416 185.114C351.171 184.876 352.788 182.188 352.788 182.188L353.893 180.47C355.608 179.195 356.202 182.188 356.202 182.188C360.837 184.383 360.916 183.073 360.916 183.073C361.173 181.899 361.646 181.898 361.646 181.898C361.646 181.898 362.801 184.581 363.22 185.25C363.247 185.299 363.282 185.345 363.322 185.386C363.598 185.624 363.322 188.108 363.322 188.108Z" fill="#3F3D56"/>
<path d="M356.181 183.65C356.399 183.65 356.576 183.498 356.576 183.311C356.576 183.123 356.399 182.971 356.181 182.971C355.963 182.971 355.787 183.123 355.787 183.311C355.787 183.498 355.963 183.65 356.181 183.65Z" fill="#F2F2F2"/>
<path d="M353.922 184.603C354.14 184.603 354.316 184.451 354.316 184.263C354.316 184.075 354.14 183.923 353.922 183.923C353.704 183.923 353.527 184.075 353.527 184.263C353.527 184.451 353.704 184.603 353.922 184.603Z" fill="#F2F2F2"/>
<path d="M355.136 184.115C355.354 184.115 355.531 183.963 355.531 183.775C355.531 183.588 355.354 183.435 355.136 183.435C354.919 183.435 354.742 183.588 354.742 183.775C354.742 183.963 354.919 184.115 355.136 184.115Z" fill="#F2F2F2"/>
<path d="M352.65 185.164C352.868 185.164 353.045 185.012 353.045 184.824C353.045 184.637 352.868 184.484 352.65 184.484C352.432 184.484 352.256 184.637 352.256 184.824C352.256 185.012 352.432 185.164 352.65 185.164Z" fill="#F2F2F2"/>
<path opacity="0.1" d="M361.271 177.324C361.016 178.056 360.916 178.822 360.976 179.585C359.576 179.18 357.283 179.25 355.769 179.359C355.956 178.253 356.063 177.324 356.063 177.324C356.063 177.324 362.297 174.738 361.271 177.324Z" fill="black"/>
<path opacity="0.1" d="M393.876 169.896C391.937 171.536 390.082 171.638 388.787 171.166L389.203 168.138C389.203 168.138 393.684 166.171 393.385 166.914C393.273 167.191 393.521 168.44 393.876 169.896Z" fill="black"/>
<path d="M359.851 114.048C359.851 114.048 356.773 115.545 356.221 118.47C355.668 121.396 354.722 125.138 354.011 125.818C353.301 126.499 351.092 128.676 351.96 129.833C352.828 130.989 352.986 134.936 352.986 134.936C352.986 134.936 352.67 138.474 353.538 139.63C354.406 140.787 355.116 148.135 353.222 150.312C353.222 150.312 352.591 155.347 352.828 155.823C353.065 156.3 351.802 157.524 352.197 158.545C352.591 159.565 354.485 178.344 354.248 179.092C354.248 179.092 360.245 178.344 361.823 179.569C361.823 179.569 362.139 177.528 361.823 176.099C361.507 174.67 362.06 169.023 362.77 167.594C363.48 166.165 363.638 160.722 363.401 160.178C363.401 160.178 364.664 155.347 364.19 154.395C363.717 153.442 366.242 144.665 366.242 144.665C366.242 144.665 367.504 142.556 367.189 142.284C367.189 142.284 369.24 141.127 369.004 140.243C368.767 139.358 370.897 138.337 370.897 138.337C370.897 138.337 372.791 142.352 373.422 142.964C374.054 143.576 374.078 147.523 374.855 148.339C375.632 149.156 376.657 153.442 377.683 154.599C378.709 155.755 382.812 158.817 383.443 162.287C383.443 162.287 387.152 167.254 386.994 168.819C386.836 170.384 391.176 173.241 395.358 167.934C394.658 167.486 394.092 166.901 393.708 166.226C393.324 165.552 393.132 164.807 393.149 164.056C393.149 161.402 389.835 152.898 389.835 152.898C389.835 152.898 387.941 150.516 388.651 149.36C389.361 148.203 388.73 144.801 388.73 144.801L390.229 142.692C390.229 142.692 390.466 140.651 390.703 138.542C390.939 136.432 389.282 134.119 390.071 133.098C390.86 132.078 389.756 126.979 389.756 126.979C389.756 126.979 388.774 118.189 387.31 117.654C385.846 117.118 359.851 114.048 359.851 114.048Z" fill="#3F3D56"/>
<path d="M367.04 101.733C367.04 101.733 365.42 101.892 363.452 102.053C360.605 102.284 357.03 102.518 356.604 102.277C355.885 101.869 356.604 96.6979 356.604 96.6979C356.604 96.6979 356.852 91.0507 356.615 87.1045C356.423 83.9026 358.881 81.5512 359.814 80.7783C360.032 80.5987 360.166 80.5048 360.166 80.5048L360.955 81.0491L365.453 87.6488L367.04 101.733Z" fill="#FBBEBE"/>
<path d="M384.627 80.0285L380.208 82.3418L372.949 87.1045C372.949 87.1045 365.453 83.7026 367.346 81.7295C367.699 81.3394 367.937 80.8813 368.039 80.3946C368.609 78.1221 367.346 74.8576 367.346 74.8576C367.346 74.8576 377.222 63.3577 376.657 72.2721C376.43 75.8537 377.672 77.8091 379.239 78.8678C381.573 80.4436 384.627 80.0285 384.627 80.0285Z" fill="#FBBEBE"/>
<path opacity="0.1" d="M384.627 80.0285L380.208 82.3418L372.949 87.1045C372.949 87.1045 365.453 83.7026 367.346 81.7295C367.699 81.3394 367.937 80.8813 368.039 80.3946C368.609 78.1221 367.346 74.8576 367.346 74.8576C367.346 74.8576 377.222 63.3577 376.657 72.2721C376.43 75.8537 377.672 77.8091 379.239 78.8678C381.573 80.4436 384.627 80.0285 384.627 80.0285Z" fill="black"/>
<path opacity="0.1" d="M371.07 78.1503C376.117 78.1503 380.208 74.4127 380.208 69.8022C380.208 65.1917 376.117 61.4541 371.07 61.4541C366.023 61.4541 361.931 65.1917 361.931 69.8022C361.931 74.4127 366.023 78.1503 371.07 78.1503Z" fill="black"/>
<path d="M371.07 77.8781C376.117 77.8781 380.208 74.1405 380.208 69.53C380.208 64.9195 376.117 61.1819 371.07 61.1819C366.023 61.1819 361.931 64.9195 361.931 69.53C361.931 74.1405 366.023 77.8781 371.07 77.8781Z" fill="#FBBEBE"/>
<path opacity="0.1" d="M384.627 80.0285L380.208 82.3418L372.949 87.1045C372.949 87.1045 365.453 83.7026 367.346 81.7295C367.699 81.3394 367.937 80.8813 368.039 80.3946C376.309 86.4908 378.821 80.1809 379.239 78.8678C381.573 80.4436 384.627 80.0285 384.627 80.0285Z" fill="black"/>
<path opacity="0.1" d="M367.04 101.733C367.04 101.733 365.42 101.892 363.452 102.053C363.374 100.588 363.117 98.9323 363.164 97.9226C363.243 96.2216 363.243 96.0175 362.612 95.065C361.981 94.1124 362.06 93.364 362.139 92.1393C362.214 90.9663 361.855 90.7296 360.575 88.8558C360.52 88.7741 360.463 88.6898 360.403 88.6013C359.775 87.6678 359.595 85.9791 359.588 84.3843C359.59 84.3785 359.59 84.3724 359.588 84.3666C359.587 83.987 359.595 83.6127 359.611 83.2562C359.612 83.2412 359.612 83.2263 359.612 83.2113C359.658 82.1336 359.76 81.2151 359.814 80.7783C360.032 80.5987 360.166 80.5048 360.166 80.5048L360.955 81.0491L365.453 87.6488L367.04 101.733Z" fill="black"/>
<path d="M390.368 81.0335C390.362 81.0308 391.321 81.6561 391.315 81.6547C388.459 80.5919 386.838 85.9452 386.404 87.6298C386.323 87.9401 386.284 88.1252 386.284 88.1252C386.284 88.1252 386.334 88.5769 386.398 89.2954C386.611 91.7013 386.977 97.0885 386.126 98.399C386.039 98.5373 385.97 98.6838 385.922 98.8358C385.654 99.6318 385.686 100.828 385.825 101.99C385.978 103.185 386.21 104.371 386.521 105.543C386.521 105.543 388.414 109.693 387.625 112.415C387.365 113.427 387.287 114.468 387.395 115.501C387.476 116.449 387.644 117.391 387.895 118.317C387.969 118.587 388.02 118.742 388.02 118.742C386.83 119.094 385.667 119.385 384.531 119.616C382.318 120.074 380.057 120.338 377.783 120.404C367.113 120.697 360.008 116.288 358.331 115.086C358.198 114.991 358.099 114.916 358.036 114.864C356.931 113.98 359.061 113.299 358.825 112.687C358.588 112.075 359.904 110.714 359.904 110.714C359.904 110.714 359.614 108.469 360.797 107.992C361.981 107.516 362.849 105.883 363.516 104.522C364.182 103.162 363.401 99.6237 363.48 97.9227C363.559 96.2217 363.559 96.0176 362.928 95.0651C362.297 94.1125 362.375 93.3641 362.454 92.1394C362.53 90.9664 362.17 90.7297 360.89 88.8559C360.835 88.7742 360.778 88.6899 360.718 88.6014C360.09 87.6679 361.069 86.0599 361.063 84.4651C361.064 84.4597 361.426 84.4706 361.425 84.4651C361.423 84.0855 360.685 83.5738 360.701 83.2173C360.703 83.2023 360.339 82.9203 360.339 82.9053C360.393 82.1021 360.334 81.2962 360.166 80.5049C366.479 77.7153 367.978 80.6219 367.978 80.6219C377.21 87.4733 379.305 78.9114 379.305 78.9114C384.33 77.4309 390.939 81.4193 391.317 81.6506C391.328 81.6574 390.368 81.0335 390.368 81.0335Z" fill="#55536E"/>
<path d="M356.497 101.039C356.497 101.039 355.707 104.673 357.991 106.7C358.37 107.034 358.861 107.256 359.394 107.336C359.928 107.415 360.477 107.346 360.963 107.14C361.721 106.819 362.57 106.341 362.888 105.729C363.516 104.522 361.547 98.6237 356.497 101.039Z" fill="#FBBEBE"/>
<path opacity="0.1" d="M386.126 98.399C386.039 98.5373 385.971 98.6839 385.923 98.8358L386.284 90.8807L386.397 89.2954C386.611 91.7013 386.977 97.0885 386.126 98.399Z" fill="black"/>
<path opacity="0.1" d="M387.625 112.415C387.365 113.427 387.287 114.468 387.395 115.501C386.884 116.3 386.446 116.978 386.162 117.418C385.94 117.761 385.81 117.96 385.81 117.96C385.335 118.483 384.907 119.036 384.531 119.616C384.237 120.024 384.055 120.484 383.996 120.962C383.996 122.008 382.773 128.982 376.973 127.247C373.228 126.127 375.619 122.695 377.783 120.404C378.503 119.642 379.273 118.917 380.09 118.232C380.09 118.232 380.759 117.497 381.401 116.728C381.839 116.243 382.219 115.721 382.536 115.17C382.812 114.49 384.633 111.496 384.633 111.496C384.633 111.496 386.442 108.196 386.047 106.666C385.826 105.808 385.803 103.69 385.825 101.99C385.978 103.185 386.21 104.371 386.521 105.543C386.521 105.543 388.414 109.693 387.625 112.415Z" fill="black"/>
<path d="M391.334 81.6615C391.334 81.6615 394.174 83.3625 394.096 87.785C394.017 92.2075 393.07 99.8618 393.07 99.8618L392.478 104.624C392.478 104.624 391.728 106.564 391.847 107.142C391.965 107.72 385.653 117.416 385.653 117.416C385.653 117.416 383.838 119.372 383.838 120.418C383.838 121.464 382.615 128.438 376.815 126.703C371.016 124.968 379.932 117.688 379.932 117.688C379.932 117.688 382.102 115.307 382.378 114.626C382.654 113.946 384.476 110.952 384.476 110.952C384.476 110.952 386.284 107.652 385.889 106.121C385.495 104.59 385.732 99.0325 385.732 99.0325L386.126 90.3365L386.284 88.1252C386.284 88.1252 387.744 80.777 391.334 81.6615Z" fill="#FBBEBE"/>
<path d="M361.202 97.895L365.508 96.5464C365.863 96.4352 366.247 96.4112 366.617 96.4773C366.987 96.5434 367.328 96.6968 367.603 96.9205L373.317 101.574C373.317 101.574 373.633 102.321 373.212 102.288C372.791 102.254 366.636 96.9475 366.636 96.9475L360.534 98.7164C360.534 98.537 360.598 98.3619 360.718 98.2149C360.837 98.068 361.006 97.9563 361.202 97.895Z" fill="#6C63FF"/>
<path d="M367.294 104.137L373.212 102.288L366.636 96.9475L360.534 98.7164L367.294 104.137Z" fill="#4B4B5B"/>
<path d="M358.404 119.423C358.694 119.423 358.93 119.22 358.93 118.969C358.93 118.719 358.694 118.516 358.404 118.516C358.113 118.516 357.878 118.719 357.878 118.969C357.878 119.22 358.113 119.423 358.404 119.423Z" fill="#F2F2F2"/>
<path d="M354.827 125.251C355.117 125.251 355.353 125.048 355.353 124.797C355.353 124.547 355.117 124.344 354.827 124.344C354.536 124.344 354.301 124.547 354.301 124.797C354.301 125.048 354.536 125.251 354.827 125.251Z" fill="#F2F2F2"/>
<path d="M383.402 127.37C383.692 127.37 383.928 127.167 383.928 126.916C383.928 126.666 383.692 126.463 383.402 126.463C383.111 126.463 382.876 126.666 382.876 126.916C382.876 127.167 383.111 127.37 383.402 127.37Z" fill="#F2F2F2"/>
<path d="M386.377 135.604C386.667 135.604 386.903 135.401 386.903 135.15C386.903 134.899 386.667 134.696 386.377 134.696C386.086 134.696 385.851 134.899 385.851 135.15C385.851 135.401 386.086 135.604 386.377 135.604Z" fill="#F2F2F2"/>
<path d="M385.218 133.286C385.509 133.286 385.744 133.083 385.744 132.833C385.744 132.582 385.509 132.379 385.218 132.379C384.928 132.379 384.692 132.582 384.692 132.833C384.692 133.083 384.928 133.286 385.218 133.286Z" fill="#F2F2F2"/>
<path d="M384.212 130.328C384.503 130.328 384.738 130.125 384.738 129.874C384.738 129.624 384.503 129.421 384.212 129.421C383.922 129.421 383.686 129.624 383.686 129.874C383.686 130.125 383.922 130.328 384.212 130.328Z" fill="#F2F2F2"/>
<path d="M356.497 122.182C356.787 122.182 357.023 121.979 357.023 121.728C357.023 121.478 356.787 121.275 356.497 121.275C356.206 121.275 355.971 121.478 355.971 121.728C355.971 121.979 356.206 122.182 356.497 122.182Z" fill="#F2F2F2"/>
<path d="M352.74 128.277C353.031 128.277 353.266 128.074 353.266 127.823C353.266 127.573 353.031 127.37 352.74 127.37C352.45 127.37 352.214 127.573 352.214 127.823C352.214 128.074 352.45 128.277 352.74 128.277Z" fill="#F2F2F2"/>
<path d="M391.316 81.6506L391.315 81.6547C388.459 80.592 386.838 85.9452 386.404 87.6298L381.917 82.0929C381.917 82.0929 380.077 84.6321 374.132 85.0185C368.188 85.4036 366.742 81.1172 366.742 81.1172C365.926 81.0628 362.232 86.7971 360.89 88.8559C360.835 88.7742 360.778 88.6899 360.718 88.6014C360.09 87.6679 359.91 85.9792 359.904 84.3844C359.906 84.3786 359.906 84.3725 359.904 84.3667C359.909 83.9966 359.917 83.6251 359.926 83.2563C359.928 83.2414 359.928 83.2264 359.928 83.2114C359.992 81.701 360.166 80.5049 360.166 80.5049C366.479 77.7153 367.978 80.6219 367.978 80.6219C377.21 87.4733 379.305 78.9114 379.305 78.9114C384.33 77.4309 390.939 81.4193 391.316 81.6506Z" fill="#6C63FF"/>
<path opacity="0.1" d="M356.3 131.398C356.379 131.568 363.007 138.167 365.453 138.508C367.899 138.848 356.3 131.398 356.3 131.398Z" fill="black"/>
<path opacity="0.1" d="M361.046 121.275C361.046 121.275 361.113 125.928 359.456 126.979C357.799 128.03 361.046 121.275 361.046 121.275Z" fill="black"/>
<path opacity="0.1" d="M364.111 122.927C364.111 122.927 363.954 128.404 366.321 129.697C366.321 129.697 361.981 126.057 364.111 122.927Z" fill="black"/>
<path opacity="0.1" d="M361.192 151.061C361.192 151.061 356.773 153.884 355.55 154.088C354.327 154.292 361.192 151.061 361.192 151.061Z" fill="black"/>
<path opacity="0.1" d="M360.089 64.6617C359.137 65.3535 359.48 66.7893 360.452 67.4593C361.425 68.1293 362.755 68.2322 363.999 68.2599C366.395 68.3131 368.829 68.1933 371.152 68.7014C372.176 68.8845 373.124 69.3033 373.895 69.9133C374.61 70.6075 375.101 71.4507 375.321 72.3593C375.728 73.6961 375.893 75.0792 375.809 76.4594C375.752 77.3871 375.584 78.3206 375.738 79.24C375.93 80.1029 376.269 80.9366 376.745 81.7138C378.572 85.056 380.606 88.3108 382.84 91.464C383.017 91.7739 383.292 92.0338 383.634 92.2134C384.204 92.4506 384.874 92.2101 385.443 91.9716C385.111 91.0114 384.924 90.0184 384.885 89.0171C385.18 89.0843 385.492 89.0738 385.781 88.9869C386.069 88.9 386.321 88.7406 386.504 88.5293C386.86 88.101 387.111 87.6145 387.241 87.0996L388.303 83.9452C388.631 82.9697 389.118 81.8502 390.248 81.563C390.653 81.5132 391.053 81.4329 391.441 81.3233C391.698 81.1924 391.904 80.9999 392.035 80.7694C392.166 80.5388 392.216 80.2803 392.178 80.0256C392.093 79.5162 391.846 79.037 391.466 78.6404C389.869 76.7872 387.205 75.6882 385.958 73.6448C384.887 71.8901 385.073 69.7784 385.427 67.8191C385.78 65.8598 386.271 63.8455 385.728 61.9188C385.178 60.1609 383.933 58.6238 382.209 57.5726C380.489 56.5338 378.524 55.8369 376.454 55.5322C375.499 55.3227 374.497 55.3285 373.545 55.5492C372.828 55.7583 372.213 56.171 371.513 56.4196C369.922 56.9844 368.088 56.6471 366.419 57.0066C364.884 57.3865 363.551 58.2167 362.651 59.3539C361.763 60.4856 361.096 61.7357 360.678 63.0541C360.371 63.9191 360.864 64.2652 359.967 64.7357" fill="black"/>
<path d="M360.246 64.3896C359.295 65.0814 359.637 66.5172 360.61 67.1872C361.583 67.8572 362.913 67.9601 364.157 67.9878C366.552 68.041 368.987 67.9212 371.309 68.4293C372.334 68.6124 373.282 69.0312 374.053 69.6412C374.767 70.3354 375.259 71.1786 375.479 72.0871C375.886 73.424 376.05 74.807 375.967 76.1873C375.91 77.115 375.742 78.0485 375.896 78.9679C376.088 79.8308 376.427 80.6645 376.902 81.4417C378.73 84.7838 380.764 88.0387 382.998 91.1919C383.175 91.5017 383.45 91.7617 383.792 91.9413C384.362 92.1785 385.032 91.938 385.601 91.6995C385.269 90.7393 385.081 89.7463 385.043 88.7449C385.338 88.8122 385.65 88.8017 385.939 88.7148C386.227 88.6279 386.479 88.4685 386.662 88.2572C387.018 87.8289 387.269 87.3424 387.399 86.8275L388.461 83.6731C388.789 82.6976 389.276 81.5781 390.406 81.2909C390.811 81.241 391.21 81.1608 391.599 81.0512C391.855 80.9203 392.062 80.7278 392.192 80.4973C392.323 80.2667 392.373 80.0082 392.336 79.7535C392.251 79.2441 392.004 78.7649 391.624 78.3683C390.026 76.5151 387.363 75.4161 386.116 73.3727C385.045 71.618 385.231 69.5063 385.584 67.547C385.938 65.5877 386.429 63.5734 385.886 61.6467C385.336 59.8888 384.091 58.3517 382.367 57.3005C380.647 56.2617 378.682 55.5648 376.612 55.2601C375.657 55.0506 374.655 55.0564 373.703 55.2771C372.986 55.4862 372.371 55.899 371.671 56.1475C370.08 56.7123 368.246 56.375 366.577 56.7345C365.042 57.1143 363.709 57.9446 362.809 59.0818C361.92 60.2135 361.254 61.4636 360.836 62.782C360.529 63.647 361.022 63.9931 360.125 64.4635" fill="#3F3D56"/>
<path d="M359.259 101.461C359.259 101.461 366.479 97.3103 368.53 99.8618C370.582 102.413 362.178 105.543 362.178 105.543L359.259 101.461Z" fill="#FBBEBE"/>
<path d="M361.618 81.7382C361.592 82.1383 361.503 82.6288 361.244 82.7014C361.918 82.6876 362.582 83.115 363.251 82.9873C363.749 82.8922 364.217 82.4758 364.517 81.861C364.547 81.7691 364.606 81.686 364.687 81.6207C364.757 81.5852 364.833 81.6206 364.903 81.6563C366.21 82.3289 367.427 83.1215 368.535 84.0203C368.905 84.3174 369.316 84.6392 369.721 84.484C369.74 83.3573 369.475 82.2405 368.946 81.2103C368.519 80.3843 367.794 79.6997 366.878 79.2591C366.117 78.9389 365.29 78.7533 364.446 78.7133C364.081 78.7069 363.723 78.6301 363.397 78.4884C363.039 78.3067 361.893 77.1267 361.636 77.986C361.512 78.4008 361.672 79.2846 361.676 79.7435C361.681 80.4093 361.662 81.0757 361.618 81.7382Z" fill="#3F3D56"/>
<g opacity="0.1">
<path opacity="0.1" d="M384.468 91.2609C384.126 91.0814 383.85 90.8214 383.673 90.5116C381.44 87.3583 379.405 84.1035 377.578 80.7613C377.103 79.9841 376.764 79.1505 376.572 78.2876C376.417 77.3682 376.586 76.4347 376.642 75.5069C376.726 74.1267 376.561 72.7436 376.154 71.4068C375.935 70.4983 375.443 69.6551 374.729 68.9609C373.958 68.3509 373.01 67.9321 371.985 67.749C369.662 67.2409 367.228 67.3607 364.833 67.3074C363.588 67.2798 362.258 67.1769 361.286 66.5069C360.909 66.2442 360.63 65.8911 360.486 65.4922C360.342 65.0932 360.338 64.6663 360.475 64.2655C360.412 64.3165 360.345 64.3629 360.273 64.4043C359.345 65.1012 359.688 66.5217 360.654 67.1873C361.627 67.8573 362.957 67.9601 364.201 67.9878C366.597 68.0411 369.031 67.9213 371.354 68.4294C372.378 68.6125 373.326 69.0312 374.097 69.6413C374.812 70.3355 375.303 71.1787 375.523 72.0872C375.93 73.424 376.095 74.8071 376.011 76.1873C375.954 77.1151 375.786 78.0485 375.94 78.968C376.132 79.8309 376.471 80.6645 376.947 81.4417C378.774 84.7839 380.809 88.0387 383.042 91.1919C383.219 91.5018 383.494 91.7618 383.836 91.9413C384.406 92.1785 385.076 91.938 385.645 91.6996C385.598 91.5628 385.554 91.425 385.513 91.2868C385.173 91.3913 384.8 91.3821 384.468 91.2609Z" fill="black"/>
<path opacity="0.1" d="M360.17 64.4628C360.208 64.443 360.24 64.4237 360.273 64.4042C360.28 64.3996 360.285 64.3943 360.291 64.3898L360.17 64.4628Z" fill="black"/>
<path opacity="0.1" d="M360.905 63.724C360.871 63.7436 360.839 63.7632 360.801 63.7833L360.922 63.7093C360.916 63.7139 360.911 63.7193 360.905 63.724C361.653 63.2826 361.217 62.9299 361.512 62.1017C361.924 60.8076 362.574 59.5788 363.437 58.4618C363.229 58.659 363.035 58.866 362.853 59.0819C361.965 60.2136 361.298 61.4637 360.88 62.782C360.788 63.1445 360.736 63.5138 360.726 63.8848C360.78 63.8269 360.84 63.7731 360.905 63.724Z" fill="black"/>
<path opacity="0.1" d="M392.275 80.3708C391.886 80.4805 391.487 80.5607 391.082 80.6106C390.505 80.7814 390.03 81.1429 389.762 81.6155C389.962 81.4671 390.197 81.3565 390.45 81.291C390.855 81.2411 391.255 81.1609 391.644 81.0512C391.8 80.9789 391.938 80.8806 392.051 80.7619C392.163 80.6432 392.247 80.5066 392.298 80.3599C392.29 80.3634 392.283 80.3675 392.275 80.3708Z" fill="black"/>
<path opacity="0.1" d="M385.718 88.0647C385.727 88.3005 385.745 88.536 385.771 88.771C386.138 88.6901 386.466 88.5101 386.706 88.2573C386.828 88.1274 386.933 87.9863 387.02 87.8365C386.841 87.964 386.629 88.0516 386.402 88.0914C386.175 88.1312 385.94 88.122 385.718 88.0647Z" fill="black"/>
</g>
<path opacity="0.1" d="M357.512 100.65C357.512 100.65 359.416 99.9865 360.534 100.134L357.512 100.65Z" fill="black"/>
<path opacity="0.1" d="M363.001 108.128C363.001 108.128 363.968 109.421 368.853 109.965C373.738 110.51 363.001 108.128 363.001 108.128Z" fill="black"/>
<path opacity="0.1" d="M361.244 112.959C361.244 112.959 365.638 116.293 372.687 115.068C379.735 113.844 361.244 112.959 361.244 112.959Z" fill="black"/>
<path d="M341.526 190.846L413.885 181.175" stroke="#3F3D56" stroke-miterlimit="10"/>
<path d="M88.5974 85.8294C88.5974 93.9817 94.8088 101.026 103.816 104.365L90.9352 77.4477C89.4024 80.0442 88.6015 82.9158 88.5974 85.8294ZM133.829 84.7901C133.829 82.2448 132.63 80.4821 131.602 79.1101C130.233 77.4136 128.951 75.977 128.951 74.2805C128.951 72.3873 130.833 70.625 133.484 70.625C133.604 70.625 133.718 70.6364 133.835 70.6415C128.652 67.0945 122.216 65.1863 115.6 65.235C106.166 65.235 97.8669 68.9266 93.0387 74.518C93.6722 74.5325 94.2698 74.5423 94.7764 74.5423C97.6008 74.5423 101.973 74.2809 101.973 74.2809C103.428 74.2155 103.6 75.8461 102.146 75.9774C102.146 75.9774 100.683 76.1087 99.0554 76.1737L108.889 98.4817L114.798 84.9645L110.591 76.1733C109.137 76.1083 107.759 75.977 107.759 75.977C106.304 75.9119 106.475 74.2151 107.93 74.2805C107.93 74.2805 112.389 74.5419 115.042 74.5419C117.866 74.5419 122.239 74.2805 122.239 74.2805C123.695 74.2151 123.867 75.8457 122.412 75.977C122.412 75.977 120.946 76.1083 119.321 76.1733L129.08 98.3124L131.772 91.4478C132.94 88.5992 133.829 86.5532 133.829 84.7901H133.829Z" fill="#6C63FF"/>
<path d="M116.074 87.6308L107.972 105.586C113.432 106.808 119.178 106.694 124.567 105.258C124.492 105.169 124.428 105.074 124.375 104.974L116.074 87.6308ZM139.294 75.9484C139.416 76.6493 139.477 77.3572 139.475 78.0661C139.475 80.156 138.964 82.5054 137.422 85.4429L129.174 103.631C137.202 100.061 142.601 93.4276 142.601 85.8293C142.595 82.3335 141.448 78.9096 139.293 75.9484L139.294 75.9484Z" fill="#6C63FF"/>
</g>
<defs>
<clipPath id="clip0">
<rect y="24" width="316" height="189.13" fill="white"/>
</clipPath>
<clipPath id="clip1">
<rect x="23" width="403" height="191" fill="white"/>
</clipPath>
</defs>
</svg>
