<svg width="91" height="56" viewBox="0 0 91 56" fill="none" xmlns="http://www.w3.org/2000/svg">
<path d="M71.6583 32.0769L70.6842 31.2536L70.7756 31.1442L70.8671 31.2216C70.8531 31.171 70.8505 31.1179 70.8596 31.0662C70.8712 31.0139 70.8959 30.9654 70.9314 30.9255C70.9779 30.8677 71.0407 30.8256 71.1116 30.8047C71.1834 30.7847 71.2595 30.7868 71.3301 30.8107C71.409 30.8364 71.4821 30.8777 71.545 30.932C71.6127 30.9875 71.668 31.0569 71.707 31.1355C71.742 31.2051 71.7552 31.2837 71.7448 31.361C71.7357 31.4329 71.7063 31.5006 71.6602 31.5563C71.6295 31.5942 71.5899 31.6239 71.545 31.6426C71.5041 31.6597 71.4601 31.6681 71.4158 31.6672L71.7586 31.9569L71.6583 32.0769ZM71.1311 31.4459C71.1977 31.5119 71.2852 31.5524 71.3783 31.5604C71.4119 31.5616 71.4453 31.5552 71.4759 31.5415C71.5066 31.5278 71.5338 31.5072 71.5554 31.4813C71.5774 31.4548 71.5932 31.4235 71.6014 31.3899C71.6095 31.3563 71.61 31.3212 71.6026 31.2874C71.5776 31.1932 71.5207 31.1107 71.4417 31.0542C71.3747 30.9883 71.287 30.9477 71.1936 30.9394C71.1601 30.9375 71.1265 30.9434 71.0956 30.9566C71.0647 30.9699 71.0372 30.9901 71.0154 31.0158C70.9939 31.043 70.9788 31.0748 70.9715 31.1088C70.9642 31.1428 70.9648 31.178 70.9733 31.2117C70.9973 31.3058 71.0531 31.3886 71.1311 31.4459V31.4459Z" fill="#3F3D56"/>
<path d="M71.9565 31.1695L71.8067 30.6014L71.2684 30.5549L71.3939 30.4049L71.6498 30.4358C71.6984 30.4419 71.7384 30.4476 71.77 30.4531C71.7572 30.4089 71.7463 30.3691 71.7376 30.3336L71.6709 30.0735L71.7908 29.9302L71.9177 30.4551L72.5106 30.5068L72.3874 30.6541L72.047 30.6145L71.9557 30.6033L72.078 31.0241L71.9565 31.1695Z" fill="#3F3D56"/>
<path d="M69.0806 33.0799L68.4363 33.8504L69.2026 34.4981L69.8468 33.7277L69.0806 33.0799Z" fill="#3F3D56"/>
<path d="M70.1113 31.8473L69.4671 32.6177L70.2334 33.2654L70.8776 32.495L70.1113 31.8473Z" fill="#3F3D56"/>
<path d="M71.6583 32.0769L70.6842 31.2536L70.7756 31.1442L70.8671 31.2216C70.8531 31.171 70.8505 31.1179 70.8596 31.0662C70.8712 31.0139 70.8959 30.9654 70.9314 30.9255C70.9779 30.8677 71.0407 30.8256 71.1116 30.8047C71.1834 30.7847 71.2595 30.7868 71.3301 30.8107C71.409 30.8364 71.4821 30.8777 71.545 30.932C71.6127 30.9875 71.668 31.0569 71.707 31.1355C71.742 31.2051 71.7552 31.2837 71.7448 31.361C71.7357 31.4329 71.7063 31.5006 71.6602 31.5563C71.6295 31.5942 71.5899 31.6239 71.545 31.6426C71.5041 31.6597 71.4601 31.6681 71.4158 31.6672L71.7586 31.9569L71.6583 32.0769ZM71.1311 31.4459C71.1977 31.5119 71.2852 31.5524 71.3783 31.5604C71.4119 31.5616 71.4453 31.5552 71.4759 31.5415C71.5066 31.5278 71.5338 31.5072 71.5554 31.4813C71.5774 31.4548 71.5932 31.4235 71.6014 31.3899C71.6095 31.3563 71.61 31.3212 71.6026 31.2874C71.5776 31.1932 71.5207 31.1107 71.4417 31.0542C71.3747 30.9883 71.287 30.9477 71.1936 30.9394C71.1601 30.9375 71.1265 30.9434 71.0956 30.9566C71.0647 30.9699 71.0372 30.9901 71.0154 31.0158C70.9939 31.043 70.9788 31.0748 70.9715 31.1088C70.9642 31.1428 70.9648 31.178 70.9733 31.2117C70.9973 31.3058 71.0531 31.3886 71.1311 31.4459V31.4459Z" fill="#3F3D56"/>
<path d="M71.9565 31.1695L71.8067 30.6014L71.2684 30.5549L71.3939 30.4049L71.6498 30.4358C71.6984 30.4419 71.7384 30.4476 71.77 30.4531C71.7572 30.4089 71.7463 30.3691 71.7376 30.3336L71.6709 30.0735L71.7908 29.9302L71.9177 30.4551L72.5106 30.5068L72.3874 30.6541L72.047 30.6145L71.9557 30.6033L72.078 31.0241L71.9565 31.1695Z" fill="#3F3D56"/>
<path d="M69.0806 33.0799L68.4363 33.8504L69.2026 34.4981L69.8468 33.7277L69.0806 33.0799Z" fill="#3F3D56"/>
<path d="M70.1113 31.8473L69.4671 32.6177L70.2334 33.2654L70.8776 32.495L70.1113 31.8473Z" fill="#3F3D56"/>
<path d="M91 55.7987H0V56H91V55.7987Z" fill="#3F3D56"/>
<path d="M48.3601 9.44371C48.9909 9.44371 49.5022 8.92959 49.5022 8.29539C49.5022 7.66119 48.9909 7.14706 48.3601 7.14706C47.7293 7.14706 47.218 7.66119 47.218 8.29539C47.218 8.92959 47.7293 9.44371 48.3601 9.44371Z" fill="#F2F2F2"/>
<path d="M20.2469 11.7584C20.2404 11.3124 20.1002 10.8787 19.8448 10.514C19.5893 10.1493 19.2304 9.87053 18.8149 9.71413C19.2912 9.52062 19.6852 9.1658 19.9288 8.71106C20.1724 8.25633 20.2502 7.73028 20.1488 7.22395C20.0474 6.71762 19.7731 6.26286 19.3735 5.93835C18.9738 5.61384 18.4739 5.44 17.9602 5.44691C17.4466 5.45383 16.9515 5.64105 16.5606 5.9762C16.1697 6.31134 15.9077 6.77332 15.8198 7.28219C15.7319 7.79107 15.8237 8.31483 16.0793 8.76285C16.3349 9.21087 16.7382 9.55496 17.2195 9.73559C16.808 9.90265 16.4563 10.1909 16.2105 10.5624C15.9648 10.934 15.8365 11.3715 15.8424 11.8177C15.8484 12.2638 15.9883 12.6978 16.2438 13.0626C16.4994 13.4274 16.8586 13.706 17.2744 13.862C16.7981 14.0555 16.4041 14.4103 16.1605 14.865C15.9169 15.3198 15.8391 15.8458 15.9405 16.3521C16.0419 16.8585 16.3162 17.3132 16.7158 17.6377C17.1155 17.9622 17.6154 18.1361 18.129 18.1292C18.6427 18.1223 19.1378 17.935 19.5287 17.5999C19.9196 17.2648 20.1816 16.8028 20.2695 16.2939C20.3574 15.785 20.2656 15.2613 20.01 14.8132C19.7544 14.3652 19.3511 14.0211 18.8698 13.8405C19.281 13.673 19.6324 13.3847 19.878 13.0132C20.1237 12.6418 20.2523 12.2045 20.2469 11.7584V11.7584ZM15.9877 7.68861C15.9823 7.30992 16.0833 6.9374 16.2791 6.61383C16.4749 6.29027 16.7574 6.02878 17.0944 5.85943C17.4313 5.69007 17.8089 5.6197 18.1838 5.65641C18.5587 5.69313 18.9157 5.83543 19.2138 6.06697C19.5119 6.29851 19.739 6.6099 19.8689 6.96536C19.9989 7.32083 20.0265 7.70594 19.9486 8.07647C19.8706 8.447 19.6903 8.78791 19.4284 9.06004C19.1664 9.33216 18.8334 9.52446 18.4676 9.61485C18.1688 9.55615 17.8612 9.56029 17.5641 9.62701C17.1224 9.53001 16.7263 9.28572 16.4401 8.93383C16.1539 8.58193 15.9945 8.1431 15.9877 7.68861V7.68861ZM20.1016 15.8875C20.1069 16.2662 20.0059 16.6387 19.8102 16.9623C19.6144 17.2858 19.3319 17.5473 18.9949 17.7167C18.658 17.886 18.2804 17.9564 17.9055 17.9197C17.5306 17.883 17.1736 17.7407 16.8755 17.5091C16.5774 17.2776 16.3503 16.9662 16.2204 16.6107C16.0904 16.2553 16.0628 15.8701 16.1407 15.4996C16.2186 15.1291 16.399 14.7882 16.6609 14.5161C16.9229 14.2439 17.2559 14.0516 17.6217 13.9612C17.9205 14.0199 18.2281 14.0158 18.5252 13.9491C18.9669 14.0461 19.363 14.2904 19.6492 14.6423C19.9353 14.9942 20.0948 15.433 20.1016 15.8875V15.8875ZM18.5225 13.7412C18.2237 13.6825 17.9161 13.6867 17.619 13.7534C17.1769 13.6571 16.7804 13.413 16.4941 13.0609C16.2078 12.7089 16.0487 12.2697 16.0426 11.815C16.0366 11.3603 16.184 10.9169 16.4608 10.5573C16.7376 10.1977 17.1275 9.94302 17.5668 9.83486C17.8656 9.89357 18.1732 9.88943 18.4703 9.82271C18.9123 9.91901 19.3089 10.1631 19.5952 10.5151C19.8815 10.8672 20.0406 11.3064 20.0467 11.7611C20.0527 12.2158 19.9053 12.6591 19.6285 13.0188C19.3517 13.3784 18.9618 13.6331 18.5225 13.7412H18.5225Z" fill="#F2F2F2"/>
<path d="M10.6313 20.0122H8.97595V39.4046V41.0689H10.6313H19.4836V39.4046H10.6313V20.0122Z" fill="#6C63FF"/>
<path d="M25.2413 20.0122H23.5859V41.069H34.0936V20.0122H25.2413ZM32.4383 39.4047H25.2413V21.6765H32.4383V39.4047Z" fill="#6C63FF"/>
<path d="M63.1336 20.0484H54.2812V41.1052H64.7889V20.0484H63.1336ZM63.1336 39.4409H55.9365V21.7127H63.1336V39.4409Z" fill="#6C63FF"/>
<path d="M46.9403 30.5406H45.5728V32.2049H46.9403V39.4409H39.7433V21.7127H48.5956V20.0484H39.7433H38.088V21.7127V39.4409V41.1052H39.7433H46.9403H48.5956V39.4409V32.2049H49.963V30.5406H48.5956H46.9403Z" fill="#6C63FF"/>
<path d="M15.6369 18.1393H15.1047V18.3176H15.6369V18.1393Z" fill="#3F3D56"/>
<path d="M57.0384 18.3176H55.9488V18.1393H57.0384V18.3176ZM54.8594 18.3176H53.7699V18.1393H54.8594V18.3176ZM52.6804 18.3176H51.5908V18.1393H52.6804V18.3176ZM50.5013 18.3176H49.4119V18.1393H50.5013V18.3176ZM48.3223 18.3176H47.2328V18.1393H48.3223V18.3176ZM46.1433 18.3176H45.0538V18.1393H46.1433V18.3176ZM43.9642 18.3176H42.8748V18.1393H43.9642V18.3176ZM41.7853 18.3176H40.6957V18.1393H41.7853V18.3176ZM39.6062 18.3176H38.5167V18.1393H39.6062V18.3176ZM37.4272 18.3176H36.3377V18.1393H37.4272L37.4272 18.3176ZM35.2482 18.3176H34.1587V18.1393H35.2482V18.3176ZM33.0692 18.3176H31.9797V18.1393H33.0692V18.3176ZM30.8901 18.3176H29.8006V18.1393H30.8901V18.3176ZM28.7111 18.3176H27.6216V18.1393H28.7111V18.3176ZM26.5321 18.3176H25.4426V18.1393H26.5321V18.3176ZM24.3531 18.3176H23.2636V18.1393H24.3531L24.3531 18.3176ZM22.174 18.3176H21.0846V18.1393H22.174V18.3176ZM19.995 18.3176H18.9055V18.1393H19.995V18.3176ZM17.816 18.3176H16.7265V18.1393H17.816V18.3176Z" fill="#3F3D56"/>
<path d="M58.6601 18.1393H58.1279V18.3176H58.6601V18.1393Z" fill="#3F3D56"/>
<path d="M66.666 22.777H66.4886V23.3122H66.666V22.777Z" fill="#3F3D56"/>
<path d="M66.6659 36.6904H66.4885V35.5755H66.6659V36.6904ZM66.6659 34.4607H66.4885V33.3458H66.6659V34.4607ZM66.6659 32.231H66.4885V31.1161H66.6659V32.231ZM66.6659 30.0013H66.4885V28.8864H66.6659V30.0013ZM66.6659 27.7716H66.4885V26.6567H66.6659V27.7716ZM66.6659 25.5419H66.4885V24.427H66.6659V25.5419Z" fill="#3F3D56"/>
<path d="M66.666 37.8052H66.4886V38.3404H66.666V37.8052Z" fill="#3F3D56"/>
<path d="M9.09483 12.0076H8.91742V49.1098H9.09483V12.0076Z" fill="#F2F2F2"/>
<path d="M64.8918 11.9853H64.7144V49.0875H64.8918V11.9853Z" fill="#F2F2F2"/>
<path d="M73.696 40.9714H0.0687866V41.1498H73.696V40.9714Z" fill="#F2F2F2"/>
<path d="M73.6739 19.923H0.0466309V20.1014H73.6739V19.923Z" fill="#F2F2F2"/>
<path d="M79.2922 11.1206C79.2989 11.2464 79.2754 11.3719 79.2236 11.4865C79.153 11.594 79.0581 11.6831 78.9467 11.7466L78.1381 12.2949C77.8996 12.4567 77.63 12.7433 77.783 12.9882C77.842 13.0672 77.922 13.128 78.0137 13.1637C78.8419 13.5634 79.7872 13.6395 80.7057 13.6248C81.2915 13.6154 81.9042 13.5632 82.4002 13.2497C82.6363 13.1005 82.8401 12.8952 83.0993 12.7917C83.2786 12.7201 83.5117 12.6677 83.5576 12.4793C83.6199 12.2239 83.2855 12.0824 83.0442 11.9811C82.5276 11.7645 82.1689 11.2637 82.0008 10.7269C81.8327 10.1902 81.8315 9.616 81.8579 9.05389C81.8651 9.01382 81.8643 8.9727 81.8554 8.93296C81.8466 8.89322 81.83 8.85565 81.8065 8.82247C81.7529 8.7785 81.6858 8.75478 81.6166 8.75542C81.06 8.69901 80.4996 8.6895 79.9414 8.72701C79.7336 8.72491 79.529 8.77845 79.3486 8.88214C79.0089 9.11609 79.2016 9.5126 79.2375 9.84184C79.283 10.2665 79.3013 10.6936 79.2922 11.1206V11.1206Z" fill="#ECB59D"/>
<path d="M82.7903 0C82.4785 0.349957 82.0513 0.574888 81.5876 0.633397C80.7858 0.74856 81.4158 2.01535 81.4158 2.01535C81.4158 2.01535 81.1867 1.5547 81.6449 1.15163C82.1031 0.74856 82.7903 0.518233 82.7903 0Z" fill="#2F2E41"/>
<path d="M81.2444 3.27418C81.7904 3.27418 82.233 2.82917 82.233 2.28023C82.233 1.73129 81.7904 1.28629 81.2444 1.28629C80.6985 1.28629 80.2559 1.73129 80.2559 2.28023C80.2559 2.82917 80.6985 3.27418 81.2444 3.27418Z" fill="#2F2E41"/>
<path d="M82.3986 3.25892C81.6348 2.85785 80.321 2.54239 79.6229 2.56494L79.7995 1.88617C80.4175 2.30831 81.7245 2.62965 82.5752 2.58015L82.3986 3.25892Z" fill="#6C63FF"/>
<path d="M80.1977 9.6471C82.1568 9.6471 83.745 8.05031 83.745 6.08058C83.745 4.11085 82.1568 2.51407 80.1977 2.51407C78.2386 2.51407 76.6504 4.11085 76.6504 6.08058C76.6504 8.05031 78.2386 9.6471 80.1977 9.6471Z" fill="#2F2E41"/>
<path d="M79.1219 50.7205H77.4936V53.527H79.1219V50.7205Z" fill="#ECB59D"/>
<path d="M83.8322 50.7205H82.2039V53.527H83.8322V50.7205Z" fill="#ECB59D"/>
<path d="M77.0865 21.6622L76.298 24.3077L84.2974 24.4687L83.6577 21.6622L81.5642 20.259L77.0865 21.6622Z" fill="#ECB59D"/>
<path d="M79.8779 10.2026C81.291 10.2026 82.4366 9.0508 82.4366 7.63001C82.4366 6.20921 81.291 5.05743 79.8779 5.05743C78.4647 5.05743 77.3192 6.20921 77.3192 7.63001C77.3192 9.0508 78.4647 10.2026 79.8779 10.2026Z" fill="#ECB59D"/>
<path d="M75.1925 18.2466C75.0109 18.7044 74.9235 19.1945 74.9357 19.6873C74.9583 20.2587 75.1354 20.9894 75.0251 21.4851C74.5983 23.4027 73.9655 26.25 72.8214 27.8029C72.5528 28.1675 72.0274 28.3684 71.629 28.6446C71.2307 28.9208 70.8515 29.2227 70.6356 29.7114C70.4676 30.0915 70.4733 30.553 70.4861 30.9844C70.4932 31.2224 70.5161 31.4942 70.7213 31.6512C70.7639 31.6332 70.7999 31.6024 70.8245 31.5631C70.849 31.5238 70.861 31.4778 70.8587 31.4314C70.8688 31.3336 70.8495 31.2338 70.8661 31.1329C70.8855 31.044 70.9245 30.9606 70.9802 30.8888C71.0358 30.817 71.1068 30.7587 71.1877 30.718C72.122 30.1375 73.1217 29.6309 73.6167 28.6205C74.1118 27.61 74.4873 26.7088 75.1577 25.8188C75.3471 25.5941 75.523 25.3582 75.6845 25.1124C75.9451 24.6626 76.141 24.1779 76.2664 23.6729C76.5403 22.6146 76.664 21.5004 76.7476 20.4209C76.7903 19.8692 76.7873 19.2783 76.3708 18.9216C75.9856 18.5917 75.5166 18.6334 75.1925 18.2466Z" fill="#ECB59D"/>
<path d="M86.7583 17.0087C86.8923 17.495 86.9373 18.0017 86.8911 18.5041C86.8349 19.1127 86.6453 19.7189 86.7305 20.3241C87.0601 22.6652 86.7006 25.0874 86.8858 27.4445C86.9292 27.9979 87.1062 28.6103 87.1377 29.1645C87.1692 29.7187 87.1053 30.2969 86.8248 30.7751C86.6066 31.147 86.2729 31.4337 85.9455 31.7131C85.7649 31.8673 85.5271 32.0312 85.3109 31.9338C85.2919 31.8903 85.2871 31.8418 85.2972 31.7953C85.3073 31.7489 85.3318 31.7069 85.3672 31.6754C85.4317 31.606 85.5168 31.5575 85.5762 31.4837C85.6907 31.3412 85.6859 31.1393 85.6731 30.9566C85.5969 29.8711 85.4382 28.7582 85.7329 27.7112C86.0268 26.6673 85.8463 25.5273 85.5468 24.485C85.4667 24.2064 85.3624 23.9349 85.2928 23.6535C85.1721 23.1654 85.1582 22.658 85.1449 22.1552L85.0626 19.0533C85.0486 18.5248 85.0807 17.9016 85.5189 17.6095C85.9242 17.3393 86.4393 17.3778 86.7583 17.0087Z" fill="#ECB59D"/>
<path d="M84.2962 23.3232C83.7736 23.6095 83.2453 23.8982 82.6717 24.0579C82.0713 24.2251 81.4414 24.2455 80.8187 24.2648C80.0755 24.3392 79.3255 24.2325 78.6321 23.9537L76.3707 23.1776C74.7709 27.0403 74.1421 31.3203 75.0103 35.4124C75.3264 36.9023 74.9953 38.4455 74.9958 39.9689C74.9864 40.5088 75.0059 41.0489 75.0543 41.5867C75.0991 42.0015 75.1783 42.4119 75.2325 42.8255C75.5631 45.3455 74.9665 47.9239 75.3389 50.4379C75.3901 50.7831 75.8064 50.9742 76.1375 51.079C76.3045 51.127 76.475 51.1616 76.6475 51.1822C77.5243 51.3113 78.4113 51.4406 79.2935 51.3559C79.509 51.3352 79.7644 51.2687 79.83 51.0612C79.8822 50.8958 79.787 50.698 79.8768 50.5497C80.4496 49.6033 80.0228 48.3065 80.0816 47.2002C80.2373 44.2736 80.0469 41.3318 80.3155 38.4135C80.3669 37.8549 80.2936 37.3617 80.3439 36.803L80.3781 36.4236L80.482 35.2708C80.544 36.8776 80.6107 38.4459 80.6727 40.0526C80.6907 40.5199 80.7097 40.9933 80.846 41.4403C80.9182 41.6769 81.0225 41.9034 81.0817 42.1437C81.1363 42.4035 81.1643 42.6682 81.1652 42.9337L81.4297 50.0123C81.4284 50.267 81.4104 50.5213 81.3758 50.7737C81.3499 51.0633 81.3446 51.4045 81.5712 51.5851C81.6895 51.6667 81.8286 51.7122 81.972 51.7164C82.4033 51.7571 82.8361 51.6804 83.2626 51.604C83.6942 51.5267 84.5911 51.4494 85.0227 51.3721C85.0881 51.3637 85.1518 51.3456 85.2119 51.3184C85.4066 51.2183 85.4547 50.9592 85.4363 50.7401C85.4179 50.5211 85.3576 50.2953 85.425 50.0862C86.2988 47.3745 85.238 44.3971 85.4348 41.5535C85.6101 39.0212 85.5854 36.4797 85.5606 33.9414C85.546 32.4403 85.445 30.972 85.4762 29.4712C85.5142 27.6426 85.6497 25.7272 84.879 24.0704C84.743 23.7779 84.5666 23.4974 84.2962 23.3232Z" fill="#2F2E41"/>
<path d="M79.3545 52.4745C79.3545 52.4745 77.6681 51.656 77.3773 52.4745C77.0865 53.2931 76.505 55.2225 77.1447 55.6903C77.3515 55.8419 77.5939 55.9371 77.8482 55.9666C78.1025 55.996 78.3601 55.9588 78.5958 55.8585C79.0089 55.6819 79.4135 55.4589 79.3545 55.281C79.2382 54.9302 79.3545 52.4745 79.3545 52.4745Z" fill="#2F2E41"/>
<path d="M81.9714 52.4745C81.9714 52.4745 83.6578 51.656 83.9485 52.4745C84.2393 53.2931 84.8208 55.2225 84.1811 55.6903C83.9743 55.8419 83.7319 55.9371 83.4776 55.9666C83.2233 55.996 82.9658 55.9588 82.7301 55.8585C82.3169 55.6819 81.9124 55.4589 81.9714 55.281C82.0877 54.9302 81.9714 52.4745 81.9714 52.4745Z" fill="#2F2E41"/>
<path d="M84.0607 12.4336C81.6228 12.39 79.1843 12.4831 76.7567 12.7125C76.5759 12.7179 76.3981 12.7593 76.2333 12.8342C76.0953 12.9184 75.9746 13.0282 75.8776 13.1579C74.791 14.469 74.1614 16.1019 74.0852 17.8068C74.076 18.0272 74.0845 18.2711 74.233 18.4335C74.9061 19.1693 75.7593 19.7065 76.2926 20.5502C76.4163 20.778 76.5662 20.9904 76.7391 21.183C76.6406 21.7859 76.6259 22.3997 76.6956 23.0066C77.049 22.542 77.5775 22.2369 78.1306 22.0557C78.6836 21.8744 79.2662 21.8069 79.8441 21.7403C80.6874 21.6432 81.59 21.5564 82.3415 21.9534C82.9312 22.2649 83.3609 22.8454 83.9811 23.09C84.0651 22.5674 84.1135 22.0396 84.1261 21.5104C84.1436 20.7692 84.6969 20.222 84.9885 19.5411C85.0678 19.3401 85.1643 19.1464 85.277 18.9622C85.5722 18.5097 86.0532 18.2054 86.5612 18.0265C87.0692 17.8475 87.6086 17.782 88.1431 17.7177C88.3862 17.3738 88.3079 16.934 88.1389 16.5479C87.9699 16.1617 87.6878 15.8393 87.4435 15.4963C86.9691 14.8301 86.6284 14.0704 86.1071 13.4407C85.8606 13.1318 85.5495 12.8814 85.1958 12.7073C84.842 12.5333 84.4545 12.4398 84.0607 12.4336V12.4336Z" fill="#2F2E41"/>
<path d="M80.9125 3.59549C80.9125 3.59549 79.709 5.15122 77.3021 5.49693C74.8951 5.84265 76.7863 9.64555 76.7863 9.64555C76.7863 9.64555 76.0986 8.26268 77.474 7.05266C78.8494 5.84265 80.9125 5.15122 80.9125 3.59549Z" fill="#2F2E41"/>
<path d="M80.9125 3.59549C80.9125 3.59549 81.6003 6.01551 82.6318 6.36123C83.6634 6.70694 83.1476 10.337 81.4283 10.6827C81.4283 10.6827 82.8897 8.69482 82.0301 7.13909C81.1704 5.58336 80.6546 4.37335 80.9125 3.59549Z" fill="#2F2E41"/>
<path d="M80.9125 3.59549C80.9125 3.59549 79.709 5.15122 77.3021 5.49693C74.8951 5.84265 76.7863 9.64555 76.7863 9.64555C76.7863 9.64555 76.0986 8.26268 77.474 7.05266C78.8494 5.84265 80.9125 5.15122 80.9125 3.59549Z" fill="#2F2E41"/>
<path d="M80.9125 3.59549C80.9125 3.59549 81.6003 6.01551 82.6318 6.36123C83.6634 6.70694 83.1476 10.337 81.4283 10.6827C81.4283 10.6827 82.8897 8.69482 82.0301 7.13909C81.1704 5.58336 80.6546 4.37335 80.9125 3.59549Z" fill="#2F2E41"/>
<path d="M38.5231 16.7568V15.4773H38.6652V15.5975C38.6947 15.5542 38.7335 15.518 38.7787 15.4917C38.826 15.467 38.8787 15.4548 38.932 15.4564C39.0059 15.4551 39.0784 15.4763 39.1399 15.5174C39.2014 15.5598 39.2487 15.6197 39.2759 15.6894C39.3071 15.7667 39.3227 15.8495 39.3218 15.9329C39.3232 16.0207 39.3059 16.1079 39.2712 16.1885C39.2408 16.2602 39.1894 16.321 39.1239 16.3627C39.0633 16.4019 38.9928 16.4229 38.9207 16.4232C38.8721 16.424 38.824 16.4127 38.7808 16.3901C38.7415 16.3697 38.7068 16.3412 38.6791 16.3065V16.7568L38.5231 16.7568ZM38.6643 15.9451C38.6569 16.0388 38.6824 16.1321 38.7362 16.209C38.7569 16.2356 38.7833 16.2571 38.8135 16.2719C38.8436 16.2867 38.8768 16.2944 38.9104 16.2943C38.9448 16.2942 38.9787 16.2862 39.0096 16.2709C39.0404 16.2556 39.0674 16.2333 39.0884 16.2059C39.144 16.126 39.1702 16.0292 39.1624 15.932C39.1694 15.838 39.1439 15.7444 39.0901 15.6672C39.07 15.6401 39.0439 15.6181 39.014 15.6029C38.984 15.5876 38.9509 15.5795 38.9173 15.5792C38.8827 15.5802 38.8488 15.5891 38.8182 15.6053C38.7877 15.6216 38.7612 15.6447 38.741 15.6729C38.6848 15.7519 38.6577 15.8481 38.6643 15.9451V15.9451Z" fill="#3F3D56"/>
<path d="M39.4059 16.4023L39.742 15.9215L39.431 15.4773H39.6259L39.7671 15.6942C39.7937 15.7354 39.8151 15.77 39.8312 15.7978C39.8566 15.7595 39.88 15.7255 39.9014 15.6959L40.0564 15.4773H40.2427L39.9248 15.9128L40.2669 16.4023H40.0755L39.8866 16.1148L39.8364 16.0373L39.5947 16.4023L39.4059 16.4023Z" fill="#3F3D56"/>
<path d="M34.499 15.4185H33.4979V16.425H34.499V15.4185Z" fill="#3F3D56"/>
<path d="M36.1008 15.4185H35.0997V16.425H36.1008V15.4185Z" fill="#3F3D56"/>
<path d="M37.7025 15.4185H36.7014V16.425H37.7025V15.4185Z" fill="#3F3D56"/>
</svg>
